<svg id="Layer_1" data-name="Layer 1" xmlns="http://www.w3.org/2000/svg" viewBox="0 0 187.01 140.26"><defs><style>.cls-1{fill:#312820;}.cls-2{fill:#97a43e;}.cls-3{fill:#e6df8d;}.cls-4{fill:#f5f4f9;}.cls-5{fill:#864828;}.cls-6{fill:#874929;}.cls-7{fill:#884a2a;}.cls-8{fill:#894b2a;}.cls-9{fill:#8a4c2b;}.cls-10{fill:#8b4d2c;}.cls-11{fill:#8c4e2d;}.cls-12{fill:#8d4f2e;}.cls-13{fill:#8e502f;}.cls-14{fill:#8f512f;}.cls-15{fill:#905230;}.cls-16{fill:#915331;}.cls-17{fill:#925432;}.cls-18{fill:#935533;}.cls-19{fill:#945634;}.cls-20{fill:#945734;}.cls-21{fill:#955835;}.cls-22{fill:#965936;}.cls-23{fill:#975a37;}.cls-24{fill:#985b38;}.cls-25{fill:#995c39;}.cls-26{fill:#9a5d39;}.cls-27{fill:#9b5e3a;}.cls-28{fill:#9c5f3b;}.cls-29{fill:#9d603c;}.cls-30{fill:#9e613d;}.cls-31{fill:#9f623e;}.cls-32{fill:#a0633e;}.cls-33{fill:#a1643f;}.cls-34{fill:#a26540;}.cls-35{fill:#a36541;}.cls-36{fill:#a46642;}.cls-37{fill:#a56743;}.cls-38{fill:#a66843;}.cls-39{fill:#a76944;}.cls-40{fill:#a86a45;}.cls-41{fill:#a96b46;}.cls-42{fill:#aa6c47;}.cls-43{fill:#ab6d48;}.cls-44{fill:#ac6e48;}.cls-45{fill:#ad6f49;}.cls-46{fill:#ae704a;}.cls-47{fill:#af714b;}.cls-48{fill:#b0724c;}.cls-49{fill:#b1734d;}.cls-50{fill:#b1744d;}.cls-51{fill:#b2754e;}.cls-52{fill:#b3764f;}.cls-53{fill:#b47750;}.cls-54{fill:#b57851;}.cls-55{fill:#b67952;}.cls-56{fill:#b77a52;}.cls-57{fill:#b87b53;}.cls-58{fill:#b97c54;}.cls-59{fill:#ba7d55;}.cls-60{fill:#bb7e56;}.cls-61{fill:#bc7f57;}.cls-62{fill:#bd8057;}.cls-63{fill:#be8158;}.cls-64{fill:#bf8259;}</style></defs><title>avocado</title><path class="cls-1" d="M133,24c6,1.1,15.83,4.83,19,14.47C154.36,45.36,139.12,85,115.52,104S66,116.18,58.4,112.37,34.79,94.1,34,78.87,47,48.4,81.25,35.46,124.65,22.51,133,24Z"/><path class="cls-2" d="M45.83,89.91c5.83,4.77,16.37,8.76,22.09,9.14,8.75.58,22.85.76,35.79-5.33A95.39,95.39,0,0,0,133,73c3-3.16,14.88-21.17,16.41-28s-1.52-16.75-16.75-19.8S80.87,36.6,77.82,38.12s-36.94,17.13-40,29.32C35.73,75.87,37.46,83.05,45.83,89.91Z"/><path class="cls-3" d="M133.79,30.89c6.06,3.12,19.42,10.28-7.23,39.22S69.44,98.29,58,93,35.17,78.48,45.07,61.73,121.23,24.41,133.79,30.89Z"/><path class="cls-4" d="M67.16,58.68s-6.85,3.81-4.57,9.9,5.33,6.85,6.85,5.33S64.87,67.82,67.16,58.68Z"/><path class="cls-5" d="M76.68,47.64a40,40,0,0,1,16.76.43c5.65,1.32,10.65,3.76,12.94,7.18s4.28,6.57,4.43,10-1.57,7.28-6.71,12A33.54,33.54,0,0,1,83.32,86a36.28,36.28,0,0,1-21.87-5.61C55,76.2,55.35,68.78,59.07,62S69.82,49.17,76.68,47.64Z"/><path class="cls-6" d="M76.58,47.76a39.28,39.28,0,0,1,16.54.41c5.57,1.3,10.5,3.71,12.75,7.11s4.21,6.53,4.34,10-1.56,7.21-6.62,11.91a33,33,0,0,1-20.5,8.57,35.69,35.69,0,0,1-21.6-5.59C55.12,76,55.5,68.67,59.17,62S69.8,49.28,76.58,47.76Z"/><path class="cls-7" d="M76.48,47.87a38.6,38.6,0,0,1,16.32.38c5.49,1.28,10.34,3.67,12.57,7s4.13,6.49,4.25,10S108.08,72.4,103.1,77a32.4,32.4,0,0,1-20.23,8.49A35.1,35.1,0,0,1,61.54,80c-6.28-4.13-5.89-11.4-2.28-18S69.77,49.4,76.48,47.87Z"/><path class="cls-8" d="M76.39,48a37.92,37.92,0,0,1,16.1.36c5.41,1.26,10.19,3.63,12.38,7s4,6.45,4.16,10-1.52,7.05-6.43,11.63a31.83,31.83,0,0,1-20,8.41,34.51,34.51,0,0,1-21-5.56c-6.18-4.1-5.79-11.29-2.23-17.8S69.75,49.51,76.39,48Z"/><path class="cls-9" d="M76.29,48.11a37.25,37.25,0,0,1,15.88.34c5.33,1.24,10,3.58,12.2,6.87s4,6.41,4.07,9.93c.09,3.33-1.52,7-6.33,11.5a31.35,31.35,0,0,1-19.69,8.33,33.92,33.92,0,0,1-20.77-5.54c-6.08-4.07-5.69-11.18-2.18-17.61S69.72,49.63,76.29,48.11Z"/><path class="cls-10" d="M76.19,48.22a36.57,36.57,0,0,1,15.66.31c5.25,1.22,9.87,3.54,12,6.8s3.89,6.37,4,9.9c.08,3.3-1.51,6.89-6.24,11.36a30.8,30.8,0,0,1-19.41,8.25,33.33,33.33,0,0,1-20.5-5.52c-6-4-5.59-11.07-2.12-17.42S69.7,49.74,76.19,48.22Z"/><path class="cls-11" d="M76.1,48.34a35.9,35.9,0,0,1,15.44.29c5.17,1.2,9.72,3.5,11.82,6.72s3.82,6.33,3.89,9.87c.07,3.26-1.49,6.81-6.15,11.22A30.25,30.25,0,0,1,82,84.61a32.75,32.75,0,0,1-20.22-5.51c-5.88-4-5.49-11-2.07-17.23S69.68,49.86,76.1,48.34Z"/><path class="cls-12" d="M76,48.46a35.09,35.09,0,0,1,15.22.27c5.09,1.19,9.56,3.45,11.64,6.64s3.74,6.29,3.8,9.84c.06,3.23-1.48,6.73-6.05,11.08a29.71,29.71,0,0,1-18.87,8.09,32.16,32.16,0,0,1-19.95-5.49c-5.78-4-5.39-10.85-2-17S69.65,50,76,48.46Z"/><path class="cls-13" d="M75.9,48.57a34.41,34.41,0,0,1,15,.24c5,1.17,9.4,3.41,11.45,6.57,1.94,3,3.66,6.25,3.71,9.81,0,3.19-1.47,6.65-6,10.95a29.17,29.17,0,0,1-18.6,8,31.58,31.58,0,0,1-19.67-5.47c-5.68-3.94-5.29-10.74-2-16.85S69.62,50.08,75.9,48.57Z"/><path class="cls-14" d="M75.81,48.69a33.72,33.72,0,0,1,14.77.22c4.93,1.15,9.25,3.37,11.27,6.49,1.9,2.93,3.58,6.21,3.62,9.78,0,3.16-1.45,6.57-5.86,10.81a28.63,28.63,0,0,1-18.33,7.93,31,31,0,0,1-19.4-5.46C56.3,74.55,56.68,67.84,60,61.81S69.6,50.19,75.81,48.69Z"/><path class="cls-15" d="M75.71,48.8a33,33,0,0,1,14.55.2c4.85,1.13,9.09,3.32,11.08,6.41,1.85,2.88,3.51,6.17,3.53,9.75,0,3.12-1.44,6.49-5.77,10.67a28.09,28.09,0,0,1-18.05,7.85,30.41,30.41,0,0,1-19.13-5.44c-5.48-3.88-5.1-10.52-1.87-16.47S69.57,50.3,75.71,48.8Z"/><path class="cls-16" d="M75.61,48.92a32.37,32.37,0,0,1,14.33.17c4.77,1.11,8.93,3.28,10.89,6.33,1.81,2.82,3.43,6.13,3.44,9.72,0,3.09-1.43,6.41-5.68,10.54a27.48,27.48,0,0,1-17.78,7.77A29.75,29.75,0,0,1,62,78c-5.38-3.85-5-10.41-1.82-16.28S69.55,50.42,75.61,48.92Z"/><path class="cls-17" d="M75.52,49a31.69,31.69,0,0,1,14.11.15c4.7,1.09,8.78,3.24,10.71,6.26,1.77,2.76,3.35,6.09,3.36,9.69,0,3.05-1.41,6.34-5.58,10.4A26.94,26.94,0,0,1,80.6,83.23,29.16,29.16,0,0,1,62,77.83c-5.28-3.82-4.9-10.31-1.77-16.09S69.52,50.53,75.52,49Z"/><path class="cls-18" d="M75.42,49.15a31,31,0,0,1,13.89.13c4.62,1.07,8.62,3.19,10.52,6.18a18.3,18.3,0,0,1,3.27,9.67c0,3-1.4,6.26-5.49,10.26A26.4,26.4,0,0,1,80.37,83a28.58,28.58,0,0,1-18.3-5.39c-5.19-3.79-4.8-10.2-1.72-15.9S69.5,50.65,75.42,49.15Z"/><path class="cls-19" d="M75.32,49.27a30.36,30.36,0,0,1,13.67.1c4.54,1.06,8.46,3.15,10.34,6.1a18.19,18.19,0,0,1,3.18,9.64c0,3-1.39,6.18-5.39,10.13a25.86,25.86,0,0,1-17,7.53,28,28,0,0,1-18-5.37c-5.09-3.76-4.7-10.09-1.67-15.71S69.47,50.76,75.32,49.27Z"/><path class="cls-20" d="M75.23,49.39a29.69,29.69,0,0,1,13.45.08c4.46,1,8.31,3.1,10.15,6a18.09,18.09,0,0,1,3.09,9.61c0,2.94-1.37,6.1-5.3,10a25.32,25.32,0,0,1-16.69,7.45,27.42,27.42,0,0,1-17.75-5.36c-5-3.73-4.6-10-1.61-15.52S69.45,50.88,75.23,49.39Z"/><path class="cls-21" d="M75.13,49.5a29,29,0,0,1,13.23.05c4.38,1,8.15,3.06,10,5.95a18,18,0,0,1,3,9.58c0,2.91-1.36,6-5.21,9.85a24.79,24.79,0,0,1-16.42,7.37A26.84,26.84,0,0,1,62.22,77c-4.89-3.7-4.5-9.87-1.56-15.33S69.42,51,75.13,49.5Z"/><path class="cls-22" d="M75,49.62a28.37,28.37,0,0,1,13,0c4.3,1,8,3,9.78,5.87a17.92,17.92,0,0,1,2.91,9.55c0,2.87-1.35,5.94-5.11,9.72a24.26,24.26,0,0,1-16.15,7.29,26.26,26.26,0,0,1-17.2-5.32c-4.79-3.67-4.4-9.76-1.51-15.14S69.4,51.1,75,49.62Z"/><path class="cls-23" d="M74.94,49.73a27.72,27.72,0,0,1,12.79,0c4.22,1,7.83,3,9.59,5.8a17.85,17.85,0,0,1,2.82,9.52c-.05,2.84-1.33,5.86-5,9.58a23.73,23.73,0,0,1-15.88,7.21,25.69,25.69,0,0,1-16.93-5.31C57.62,72.91,58,66.9,60.85,61.6S69.37,51.22,74.94,49.73Z"/><path class="cls-24" d="M74.84,49.85a27.07,27.07,0,0,1,12.57,0c4.14,1,7.68,2.93,9.41,5.72A17.78,17.78,0,0,1,99.54,65c-.06,2.8-1.32,5.79-4.92,9.44A23.2,23.2,0,0,1,79,81.62a25.12,25.12,0,0,1-16.65-5.29c-4.59-3.61-4.2-9.54-1.41-14.76S69.35,51.33,74.84,49.85Z"/><path class="cls-25" d="M74.74,50a26.42,26.42,0,0,1,12.35,0c4.06.95,7.52,2.89,9.22,5.64A17.73,17.73,0,0,1,99,65c-.07,2.77-1.31,5.71-4.83,9.31a22.68,22.68,0,0,1-15.33,7.05,24.55,24.55,0,0,1-16.38-5.27c-4.49-3.58-4.1-9.43-1.36-14.56S69.32,51.45,74.74,50Z"/><path class="cls-26" d="M74.65,50.08A25.78,25.78,0,0,1,86.77,50c4,.93,7.36,2.84,9,5.56A17.69,17.69,0,0,1,98.36,65c-.08,2.73-1.29,5.63-4.74,9.17a22.15,22.15,0,0,1-15.06,7,24,24,0,0,1-16.1-5.26c-4.39-3.54-4-9.32-1.31-14.37S69.3,51.56,74.65,50.08Z"/><path class="cls-27" d="M74.55,50.2a25.14,25.14,0,0,1,11.9-.09c3.9.91,7.21,2.8,8.85,5.49A17.66,17.66,0,0,1,97.77,65c-.09,2.69-1.28,5.55-4.64,9a21.63,21.63,0,0,1-14.79,6.89,23.42,23.42,0,0,1-15.83-5.24c-4.29-3.51-3.9-9.21-1.26-14.18S69.27,51.68,74.55,50.2Z"/><path class="cls-28" d="M74.45,50.32a24.5,24.5,0,0,1,11.68-.11C90,51.1,93.19,53,94.8,55.61A17.65,17.65,0,0,1,97.17,65c-.1,2.66-1.26,5.47-4.55,8.9A21.11,21.11,0,0,1,78.11,80.7a22.85,22.85,0,0,1-15.56-5.22c-4.2-3.48-3.8-9.11-1.21-14S69.25,51.79,74.45,50.32Z"/><path class="cls-29" d="M74.36,50.43a23.87,23.87,0,0,1,11.46-.13c3.74.87,6.89,2.71,8.48,5.33A17.64,17.64,0,0,1,96.58,65c-.11,2.62-1.25,5.4-4.45,8.76a20.6,20.6,0,0,1-14.24,6.73A22.29,22.29,0,0,1,62.6,75.27c-4.1-3.45-3.7-9-1.16-13.8S69.22,51.91,74.36,50.43Z"/><path class="cls-30" d="M74.26,50.55a23.25,23.25,0,0,1,11.24-.16c3.67.85,6.74,2.67,8.29,5.26A17.65,17.65,0,0,1,96,65c-.11,2.59-1.24,5.32-4.36,8.62a20.09,20.09,0,0,1-14,6.65,21.74,21.74,0,0,1-15-5.19c-4-3.42-3.6-8.89-1.1-13.61S69.2,52,74.26,50.55Z"/><path class="cls-31" d="M74.16,50.67a22.62,22.62,0,0,1,11-.18c3.59.83,6.58,2.62,8.11,5.18a17.67,17.67,0,0,1,2.11,9.29c-.12,2.55-1.22,5.24-4.27,8.49A19.58,19.58,0,0,1,77.43,80,21.18,21.18,0,0,1,62.7,74.84c-3.9-3.39-3.5-8.78-1.05-13.42S69.17,52.14,74.16,50.67Z"/><path class="cls-32" d="M74.07,50.78a22,22,0,0,1,10.8-.21c3.51.82,6.42,2.58,7.92,5.1a17.7,17.7,0,0,1,2,9.26c-.13,2.52-1.21,5.16-4.17,8.35A19.07,19.07,0,0,1,77.2,79.78a20.63,20.63,0,0,1-14.46-5.15c-3.8-3.36-3.4-8.67-1-13.23S69.15,52.25,74.07,50.78Z"/><path class="cls-33" d="M74,50.9a21.39,21.39,0,0,1,10.58-.23c3.43.8,6.27,2.53,7.73,5a17.75,17.75,0,0,1,1.93,9.23C94.07,67.4,93,70,90.13,73.14A18.56,18.56,0,0,1,77,79.55a20.09,20.09,0,0,1-14.18-5.14c-3.7-3.33-3.3-8.56-1-13S69.12,52.37,74,50.9Z"/><path class="cls-34" d="M73.87,51a20.78,20.78,0,0,1,10.36-.25c3.35.78,6.11,2.49,7.55,4.95a17.81,17.81,0,0,1,1.84,9.2c-.14,2.45-1.18,5-4,8.08a18.06,18.06,0,0,1-12.88,6.33A19.54,19.54,0,0,1,62.84,74.2c-3.6-3.3-3.2-8.45-.9-12.85S69.1,52.48,73.87,51Z"/><path class="cls-35" d="M73.78,51.13a20.17,20.17,0,0,1,10.14-.28,11.18,11.18,0,0,1,7.36,4.87A17.89,17.89,0,0,1,93,64.9c-.15,2.41-1.17,4.93-3.89,7.94C85.73,76.6,81.4,79,76.52,79.09A19,19,0,0,1,62.89,74c-3.5-3.27-3.1-8.34-.85-12.66S69.07,52.6,73.78,51.13Z"/><path class="cls-36" d="M73.68,51.25a19.57,19.57,0,0,1,9.92-.3,10.86,10.86,0,0,1,7.18,4.79,18,18,0,0,1,1.66,9.14c-.16,2.37-1.15,4.85-3.8,7.8-3.33,3.71-7.55,6.07-12.34,6.17a18.47,18.47,0,0,1-13.36-5.09c-3.4-3.24-3-8.23-.8-12.47S69,52.71,73.68,51.25Z"/><path class="cls-37" d="M73.58,51.36a19,19,0,0,1,9.7-.32,10.55,10.55,0,0,1,7,4.72,18.09,18.09,0,0,1,1.57,9.11c-.16,2.34-1.14,4.78-3.7,7.67-3.25,3.66-7.37,6-12.07,6.09A17.93,17.93,0,0,1,63,73.56c-3.3-3.21-2.9-8.12-.75-12.28S69,52.83,73.58,51.36Z"/><path class="cls-38" d="M73.49,51.48A18.39,18.39,0,0,1,83,51.13a10.23,10.23,0,0,1,6.8,4.64,18.23,18.23,0,0,1,1.48,9.08c-.17,2.3-1.12,4.7-3.61,7.53-3.17,3.61-7.19,5.94-11.79,6A17.4,17.4,0,0,1,63,73.34c-3.2-3.18-2.8-8-.7-12.09S69,52.94,73.49,51.48Z"/><path class="cls-39" d="M73.39,51.6a17.8,17.8,0,0,1,9.25-.37,9.92,9.92,0,0,1,6.62,4.56c.86,1.52,1.69,5.19,1.39,9.06-.18,2.27-1.11,4.62-3.51,7.39-3.09,3.56-7,5.87-11.52,5.93a16.88,16.88,0,0,1-12.53-5c-3.11-3.15-2.7-7.91-.65-11.9S69,53.06,73.39,51.6Z"/><path class="cls-40" d="M73.29,51.71a17.22,17.22,0,0,1,9-.39,9.61,9.61,0,0,1,6.43,4.48c.82,1.46,1.62,5.15,1.3,9-.18,2.23-1.09,4.55-3.42,7.26-3,3.51-6.83,5.8-11.25,5.85a16.36,16.36,0,0,1-12.26-5c-3-3.12-2.6-7.8-.59-11.71A21.08,21.08,0,0,1,73.29,51.71Z"/><path class="cls-41" d="M73.2,51.83A16.65,16.65,0,0,1,82,51.41a9.3,9.3,0,0,1,6.25,4.41c.78,1.4,1.54,5.11,1.21,9a12.44,12.44,0,0,1-3.33,7.12c-2.93,3.46-6.65,5.73-11,5.77a15.85,15.85,0,0,1-12-5c-2.91-3.08-2.5-7.69-.54-11.52A20.84,20.84,0,0,1,73.2,51.83Z"/><path class="cls-42" d="M73.1,51.94a16.08,16.08,0,0,1,8.59-.44,9,9,0,0,1,6.06,4.33c.74,1.35,1.47,5.07,1.12,9a12.39,12.39,0,0,1-3.23,7c-2.85,3.41-6.47,5.66-10.71,5.69a15.33,15.33,0,0,1-11.71-5c-2.81-3.05-2.4-7.58-.49-11.33A20.61,20.61,0,0,1,73.1,51.94Z"/><path class="cls-43" d="M73,52.06a15.52,15.52,0,0,1,8.37-.47,8.7,8.7,0,0,1,5.87,4.25c.7,1.29,1.4,5,1,8.94a12.34,12.34,0,0,1-3.14,6.85c-2.77,3.36-6.29,5.59-10.43,5.61a14.83,14.83,0,0,1-11.44-5c-2.71-3-2.3-7.47-.44-11.14A20.39,20.39,0,0,1,73,52.06Z"/><path class="cls-44" d="M72.91,52.18a15,15,0,0,1,8.15-.49,8.4,8.4,0,0,1,5.69,4.18c.66,1.23,1.33,5,.95,8.91a12.3,12.3,0,0,1-3,6.71C82,74.79,78.54,77,74.49,77a14.33,14.33,0,0,1-11.16-5c-2.61-3-2.2-7.36-.39-10.95A20.16,20.16,0,0,1,72.91,52.18Z"/><path class="cls-45" d="M72.81,52.29a14.41,14.41,0,0,1,7.93-.51,8.1,8.1,0,0,1,5.5,4.1c.63,1.17,1.26,4.95.86,8.88a12.27,12.27,0,0,1-2.95,6.57c-2.62,3.26-5.93,5.45-9.89,5.45a13.83,13.83,0,0,1-10.89-4.94c-2.51-3-2.1-7.25-.34-10.76A19.93,19.93,0,0,1,72.81,52.29Z"/><path class="cls-46" d="M72.71,52.41a13.87,13.87,0,0,1,7.71-.54,7.81,7.81,0,0,1,5.32,4c.59,1.11,1.19,4.91.77,8.85a12.25,12.25,0,0,1-2.86,6.44C81.11,74.4,77.9,76.57,74,76.56a13.35,13.35,0,0,1-10.61-4.92c-2.41-2.93-2-7.14-.29-10.57A19.71,19.71,0,0,1,72.71,52.41Z"/><path class="cls-47" d="M72.62,52.53A13.33,13.33,0,0,1,80.1,52a7.52,7.52,0,0,1,5.13,3.94c.55,1.05,1.12,4.87.68,8.82A12.24,12.24,0,0,1,83.15,71c-2.46,3.16-5.56,5.32-9.34,5.29a12.86,12.86,0,0,1-10.34-4.9c-2.31-2.9-1.9-7-.24-10.38A19.49,19.49,0,0,1,72.62,52.53Z"/><path class="cls-48" d="M72.52,52.64a12.81,12.81,0,0,1,7.27-.58,7.24,7.24,0,0,1,4.94,3.87c.51,1,1,4.83.59,8.79a12.25,12.25,0,0,1-2.67,6.16c-2.38,3.12-5.38,5.25-9.07,5.21a12.39,12.39,0,0,1-10.06-4.89c-2.21-2.87-1.81-6.92-.19-10.19A19.27,19.27,0,0,1,72.52,52.64Z"/><path class="cls-49" d="M72.42,52.76a12.28,12.28,0,0,1,7-.61,7,7,0,0,1,4.76,3.79c.48.93,1,4.79.5,8.77a12.26,12.26,0,0,1-2.57,6c-2.3,3.07-5.2,5.18-8.8,5.13A11.92,11.92,0,0,1,63.57,71c-2.12-2.84-1.71-6.82-.14-10A19.05,19.05,0,0,1,72.42,52.76Z"/><path class="cls-50" d="M72.33,52.87a11.77,11.77,0,0,1,6.83-.63A6.68,6.68,0,0,1,83.72,56c.44.87.91,4.75.41,8.74a12.3,12.3,0,0,1-2.48,5.89c-2.22,3-5,5.11-8.53,5.05a11.45,11.45,0,0,1-9.51-4.85C61.6,68,62,64.08,63.53,61A18.84,18.84,0,0,1,72.33,52.87Z"/><path class="cls-51" d="M72.23,53a11.26,11.26,0,0,1,6.6-.65A6.41,6.41,0,0,1,83.22,56c.41.81.84,4.71.32,8.71a12.36,12.36,0,0,1-2.38,5.75c-2.13,3-4.84,5-8.26,5a11,11,0,0,1-9.24-4.84c-1.92-2.78-1.51-6.6,0-9.61A18.62,18.62,0,0,1,72.23,53Z"/><path class="cls-52" d="M72.13,53.11a10.76,10.76,0,0,1,6.38-.68A6.14,6.14,0,0,1,82.72,56c.37.75.77,4.67.23,8.68a12.44,12.44,0,0,1-2.29,5.62c-2.05,2.92-4.66,5-8,4.89a10.55,10.55,0,0,1-9-4.82c-1.82-2.75-1.41-6.49,0-9.42A18.42,18.42,0,0,1,72.13,53.11Z"/><path class="cls-53" d="M72,53.22a10.27,10.27,0,0,1,6.16-.7,5.87,5.87,0,0,1,4,3.48c.34.69.7,4.63.14,8.65a12.55,12.55,0,0,1-2.2,5.48c-2,2.88-4.48,4.9-7.71,4.81a10.11,10.11,0,0,1-8.69-4.8c-1.72-2.72-1.31-6.38.07-9.23A18.21,18.21,0,0,1,72,53.22Z"/><path class="cls-54" d="M71.94,53.34a9.79,9.79,0,0,1,5.94-.72A5.62,5.62,0,0,1,81.71,56c.3.63.63,4.59.05,8.62A12.7,12.7,0,0,1,79.66,70c-1.89,2.83-4.3,4.83-7.44,4.73a9.68,9.68,0,0,1-8.42-4.79c-1.62-2.69-1.21-6.27.12-9A18,18,0,0,1,71.94,53.34Z"/><path class="cls-55" d="M71.84,53.46a9.32,9.32,0,0,1,5.72-.75A5.36,5.36,0,0,1,81.21,56c.27.57.57,4.55,0,8.59a12.9,12.9,0,0,1-2,5.21C77.36,72.62,75,74.59,72,74.48a9.26,9.26,0,0,1-8.14-4.77c-1.52-2.66-1.11-6.16.17-8.85A17.81,17.81,0,0,1,71.84,53.46Z"/><path class="cls-56" d="M71.75,53.57a8.85,8.85,0,0,1,5.5-.77c1.61.37,2.64,1.49,3.46,3.25a27.42,27.42,0,0,1-.13,8.56,13.14,13.14,0,0,1-1.91,5.07c-1.72,2.74-3.94,4.69-6.89,4.57A8.85,8.85,0,0,1,63.9,69.5c-1.42-2.63-1-6.05.22-8.66A17.61,17.61,0,0,1,71.75,53.57Z"/><path class="cls-57" d="M71.65,53.69a8.4,8.4,0,0,1,5.28-.8c1.53.35,2.48,1.45,3.27,3.17A28.76,28.76,0,0,1,80,64.6a13.46,13.46,0,0,1-1.82,4.93c-1.64,2.69-3.75,4.62-6.62,4.49A8.44,8.44,0,0,1,64,69.29c-1.32-2.59-.91-5.94.27-8.47A17.43,17.43,0,0,1,71.65,53.69Z"/><path class="cls-58" d="M71.55,53.8A8,8,0,0,1,76.61,53c1.45.33,2.32,1.4,3.08,3.1a30.32,30.32,0,0,1-.3,8.5,13.87,13.87,0,0,1-1.73,4.8c-1.55,2.65-3.57,4.55-6.35,4.41A8,8,0,0,1,64,69.07a10.15,10.15,0,0,1,.32-8.28A17.24,17.24,0,0,1,71.55,53.8Z"/><path class="cls-59" d="M71.46,53.92a7.53,7.53,0,0,1,4.84-.84c1.37.32,2.16,1.35,2.9,3a32.12,32.12,0,0,1-.39,8.47,14.4,14.4,0,0,1-1.63,4.66c-1.46,2.61-3.39,4.48-6.08,4.33a7.67,7.67,0,0,1-7-4.7,10.29,10.29,0,0,1,.37-8.09A17.07,17.07,0,0,1,71.46,53.92Z"/><path class="cls-60" d="M71.36,54A7.11,7.11,0,0,1,76,53.17a3.57,3.57,0,0,1,2.71,2.94,32,32,0,0,1-.48,8.45,15.09,15.09,0,0,1-1.54,4.52c-1.37,2.56-3.21,4.41-5.81,4.25a7.29,7.29,0,0,1-6.77-4.69,10.47,10.47,0,0,1,.43-7.9A16.9,16.9,0,0,1,71.36,54Z"/><path class="cls-61" d="M71.26,54.15a6.7,6.7,0,0,1,4.4-.89,3.36,3.36,0,0,1,2.53,2.86,34.67,34.67,0,0,1-.57,8.42,16,16,0,0,1-1.44,4.39c-1.28,2.52-3,4.34-5.53,4.17a6.93,6.93,0,0,1-6.49-4.67,10.69,10.69,0,0,1,.48-7.71A16.73,16.73,0,0,1,71.26,54.15Z"/><path class="cls-62" d="M71.17,54.27a6.3,6.3,0,0,1,4.18-.91,3.16,3.16,0,0,1,2.34,2.79A38,38,0,0,1,77,64.53a17.29,17.29,0,0,1-1.35,4.25c-1.19,2.48-2.85,4.26-5.26,4.09a6.58,6.58,0,0,1-6.22-4.65,11,11,0,0,1,.53-7.52A16.58,16.58,0,0,1,71.17,54.27Z"/><path class="cls-63" d="M71.07,54.39a5.94,5.94,0,0,1,4-.94c1.05.24,1.85,1.06,2.15,2.71a42.21,42.21,0,0,1-.75,8.36,19.11,19.11,0,0,1-1.26,4.11c-1.09,2.43-2.67,4.19-5,4A6.25,6.25,0,0,1,64.24,68a11.28,11.28,0,0,1,.58-7.33A16.49,16.49,0,0,1,71.07,54.39Z"/><path class="cls-64" d="M64.92,60.65C65.71,58.8,68.37,56,71,54.5s5.14-1.69,5.7,1.67a47.72,47.72,0,0,1-.84,8.33C75,68.63,73.32,72.69,70,72.41a5.92,5.92,0,0,1-5.67-4.62A11.68,11.68,0,0,1,64.92,60.65Z"/></svg>