<svg id="Layer_1" data-name="Layer 1" xmlns="http://www.w3.org/2000/svg" viewBox="0 0 150.15 150.15"><defs><style>.cls-1{fill:#e7cc9f;stroke:#e2a052;stroke-miterlimit:10;}.cls-2{fill:#98bf43;}.cls-3{fill:#fbfcec;}.cls-4{fill:#fbd233;}.cls-5{fill:#f9b835;}.cls-6{fill:#fff;}</style></defs><title>avotoast</title><path id="Bread_1" data-name="Bread 1" class="cls-1" d="M104.18,111.66C88.86,119.2,40.86,109.77,38.8,108s1.64-40.2,1.64-40.2-13.13-12.44.44-25.36,35.66,3.64,35.66,3.64c1.13-2.27,26.22-11.45,34.21.48s3.15,19.61-2.22,25.7Z"/><path class="cls-2" d="M44.69,44.36c4.3-4.3,5.48-3,11.93-.81s10.75,5.37,14,4.3,5,.43,7.88.21,11.47-4.51,17.91-2.36,12.36,2,14.24,5.82,1.88,12.45-1.35,14.6-5.37,10.75-4.3,11.82-2.15,11.82-2.15,12.89v19.34s-10.42,2.05-12.19,2.1-16.82-3.18-19-2.1-14-1.07-16.12-2.15-15.16.26-15.1-3.09,2.21-15.18,2.21-17.32-2.1-8.41-1.05-10.12,2.13-7.08,2.13-9.23-6.45-3.22-5.37-8.6,1.52-7.8,3.22-10.75A24.53,24.53,0,0,1,44.69,44.36Z"/><path class="cls-3" d="M68.41,51.21C80.31,50.79,87.62,57.5,93.16,66s16.63,24,3.33,36.21-21.43-2.59-29.93,0S41.44,97,45.13,83.73,47.72,52,68.41,51.21Z"/><circle class="cls-4" cx="78.29" cy="84.79" r="10.82"/><path class="cls-5" d="M85,76.35A11.57,11.57,0,0,1,71.77,93.41,10.81,10.81,0,0,0,85,76.35Z"/><ellipse class="cls-6" cx="72.72" cy="80.33" rx="2.01" ry="1.46" transform="translate(-35.5 74.95) rotate(-45)"/></svg>