<svg id="Layer_1" data-name="Layer 1" xmlns="http://www.w3.org/2000/svg" viewBox="0 0 448 354"><defs><style>.cls-1{fill:#d1d1d1;}.cls-2{fill:#d2d2d2;}.cls-3{fill:#d3d3d3;}.cls-4{fill:#d4d4d4;}.cls-5{fill:#d5d5d5;}.cls-6{fill:#d6d6d6;}.cls-7{fill:#d7d7d7;}.cls-8{fill:#d8d8d8;}.cls-9{fill:#d9d9d9;}.cls-10{fill:#dadada;}.cls-11{fill:#dbdbdb;}.cls-12{fill:#dcdcdc;}.cls-13{fill:#ddd;}.cls-14{fill:#dedede;}.cls-15{fill:#dfdfdf;}.cls-16{fill:#e0e0e0;}.cls-17{fill:#c6c6c6;stroke:#9b9b9b;stroke-miterlimit:10;stroke-width:0.3px;}.cls-18{fill:#b1b1b1;}.cls-19{fill:#181818;}.cls-20{fill:#303030;}.cls-21{fill:#616161;}.cls-22{fill:#2a2a2a;}</style></defs><title>laptop_1</title><rect class="cls-1" x="154.42" y="241.62" width="234" height="47" rx="8.62" ry="8.62" transform="translate(-90.81 152.21) rotate(-27.01)"/><rect class="cls-2" x="151.3" y="235.19" width="234" height="47.63" rx="8.62" ry="8.62" transform="translate(-88.37 150.13) rotate(-27.01)"/><rect class="cls-3" x="148.17" y="228.75" width="234" height="48.25" rx="8.62" ry="8.62" transform="translate(-85.93 148.04) rotate(-27.01)"/><rect class="cls-4" x="145.05" y="222.31" width="234" height="48.88" rx="8.62" ry="8.62" transform="translate(-83.49 145.95) rotate(-27.01)"/><rect class="cls-5" x="141.93" y="215.87" width="234" height="49.5" rx="8.62" ry="8.62" transform="translate(-81.04 143.87) rotate(-27.01)"/><rect class="cls-6" x="138.81" y="209.44" width="234" height="50.12" rx="8.62" ry="8.62" transform="translate(-78.6 141.78) rotate(-27.01)"/><rect class="cls-7" x="135.68" y="203" width="234" height="50.75" rx="8.62" ry="8.62" transform="translate(-76.16 139.69) rotate(-27.01)"/><rect class="cls-8" x="132.56" y="196.56" width="234" height="51.37" rx="8.62" ry="8.62" transform="translate(-73.72 137.61) rotate(-27.01)"/><rect class="cls-9" x="129.44" y="190.12" width="234" height="52" rx="8.62" ry="8.62" transform="translate(-71.28 135.52) rotate(-27.01)"/><rect class="cls-9" x="126.31" y="183.69" width="234" height="52.63" rx="8.62" ry="8.62" transform="translate(-68.84 133.43) rotate(-27.01)"/><rect class="cls-10" x="123.19" y="177.25" width="234" height="53.25" rx="8.62" ry="8.62" transform="translate(-66.4 131.35) rotate(-27.01)"/><rect class="cls-11" x="120.07" y="170.81" width="234" height="53.87" rx="8.62" ry="8.62" transform="translate(-63.96 129.26) rotate(-27.01)"/><rect class="cls-12" x="116.95" y="164.37" width="234" height="54.5" rx="8.62" ry="8.62" transform="translate(-61.51 127.17) rotate(-27.01)"/><rect class="cls-13" x="113.82" y="157.94" width="234" height="55.12" rx="8.62" ry="8.62" transform="translate(-59.07 125.09) rotate(-27.01)"/><rect class="cls-14" x="110.7" y="151.5" width="234" height="55.75" rx="8.62" ry="8.62" transform="translate(-56.63 123) rotate(-27.01)"/><rect class="cls-15" x="107.58" y="145.06" width="234" height="56.37" rx="8.62" ry="8.62" transform="translate(-54.19 120.91) rotate(-27.01)"/><rect class="cls-16" x="104.45" y="138.63" width="234" height="57" rx="8.62" ry="8.62" transform="translate(-51.75 118.83) rotate(-27.01)"/><rect class="cls-17" x="231.52" y="229.66" width="68" height="50" rx="1.88" ry="1.88" transform="translate(-86.7 148.39) rotate(-27.01)"/><rect class="cls-18" x="118.61" y="141.47" width="183" height="9" transform="translate(-43.38 111.36) rotate(-27.01)"/><rect class="cls-19" x="117.87" y="142.39" width="182" height="4.5" transform="translate(-42.91 110.65) rotate(-27.01)"/><rect class="cls-20" x="173.22" y="215.9" width="11" height="10" rx="1.17" ry="1.17" transform="translate(-80.84 105.28) rotate(-27.01)"/><rect class="cls-20" x="184.27" y="210.27" width="11" height="10" rx="1.17" ry="1.17" transform="translate(-77.08 109.69) rotate(-27.01)"/><rect class="cls-20" x="195.31" y="204.64" width="11" height="10" rx="1.17" ry="1.17" transform="translate(-73.31 114.09) rotate(-27.01)"/><rect class="cls-20" x="206.36" y="199.01" width="11" height="10" rx="1.17" ry="1.17" transform="translate(-69.55 118.49) rotate(-27.01)"/><rect class="cls-20" x="217.41" y="193.38" width="11" height="10" rx="1.17" ry="1.17" transform="translate(-65.78 122.89) rotate(-27.01)"/><rect class="cls-20" x="228.45" y="187.74" width="11" height="10" rx="1.17" ry="1.17" transform="translate(-62.02 127.3) rotate(-27.01)"/><rect class="cls-20" x="239.5" y="182.11" width="11" height="10" rx="1.17" ry="1.17" transform="translate(-58.26 131.7) rotate(-27.01)"/><rect class="cls-20" x="250.55" y="176.48" width="11" height="10" rx="1.17" ry="1.17" transform="translate(-54.49 136.1) rotate(-27.01)"/><rect class="cls-20" x="261.6" y="170.85" width="11" height="10" rx="1.17" ry="1.17" transform="translate(-50.73 140.51) rotate(-27.01)"/><rect class="cls-20" x="272.64" y="165.21" width="11" height="10" rx="1.17" ry="1.17" transform="translate(-46.97 144.91) rotate(-27.01)"/><rect class="cls-20" x="283.69" y="159.58" width="11" height="10" rx="1.17" ry="1.17" transform="translate(-43.2 149.31) rotate(-27.01)"/><rect class="cls-20" x="184.02" y="223.87" width="11" height="10" rx="1.17" ry="1.17" transform="translate(-83.28 111.05) rotate(-27.01)"/><rect class="cls-20" x="195.1" y="218.22" width="11" height="10" rx="1.17" ry="1.17" transform="translate(-79.5 115.47) rotate(-27.01)"/><rect class="cls-20" x="206.19" y="212.56" width="11" height="10" rx="1.17" ry="1.17" transform="translate(-75.73 119.89) rotate(-27.01)"/><rect class="cls-20" x="217.28" y="206.91" width="11" height="10" rx="1.17" ry="1.17" transform="translate(-71.95 124.31) rotate(-27.01)"/><rect class="cls-20" x="228.36" y="201.26" width="11" height="10" rx="1.17" ry="1.17" transform="translate(-68.17 128.73) rotate(-27.01)"/><rect class="cls-20" x="239.45" y="195.61" width="11" height="10" rx="1.17" ry="1.17" transform="translate(-64.39 133.15) rotate(-27.01)"/><rect class="cls-20" x="250.53" y="189.95" width="11" height="10" rx="1.17" ry="1.17" transform="translate(-60.62 137.57) rotate(-27.01)"/><rect class="cls-20" x="261.62" y="184.3" width="11" height="10" rx="1.17" ry="1.17" transform="translate(-56.84 141.99) rotate(-27.01)"/><rect class="cls-20" x="272.71" y="178.65" width="11" height="10" rx="1.17" ry="1.17" transform="translate(-53.06 146.41) rotate(-27.01)"/><rect class="cls-20" x="283.79" y="173" width="11" height="10" rx="1.17" ry="1.17" transform="translate(-49.28 150.83) rotate(-27.01)"/><rect class="cls-20" x="165.1" y="206.58" width="11" height="10" rx="1.17" ry="1.17" transform="translate(-77.49 100.57) rotate(-27.01)"/><rect class="cls-20" x="176.11" y="200.96" width="11" height="10" rx="1.17" ry="1.17" transform="translate(-73.74 104.96) rotate(-27.01)"/><rect class="cls-20" x="187.13" y="195.35" width="11" height="10" rx="1.17" ry="1.17" transform="translate(-69.98 109.35) rotate(-27.01)"/><rect class="cls-20" x="198.14" y="189.73" width="11" height="10" rx="1.17" ry="1.17" transform="translate(-66.23 113.75) rotate(-27.01)"/><rect class="cls-20" x="209.15" y="184.11" width="11" height="10" rx="1.17" ry="1.17" transform="translate(-62.48 118.14) rotate(-27.01)"/><rect class="cls-20" x="220.17" y="178.5" width="11" height="10" rx="1.17" ry="1.17" transform="translate(-58.73 122.53) rotate(-27.01)"/><rect class="cls-20" x="231.18" y="172.88" width="11" height="10" rx="1.17" ry="1.17" transform="translate(-54.97 126.92) rotate(-27.01)"/><rect class="cls-20" x="242.2" y="167.27" width="11" height="10" rx="1.17" ry="1.17" transform="translate(-51.22 131.31) rotate(-27.01)"/><rect class="cls-20" x="253.21" y="161.65" width="11" height="10" rx="1.17" ry="1.17" transform="translate(-47.47 135.7) rotate(-27.01)"/><rect class="cls-20" x="264.23" y="156.03" width="11" height="10" rx="1.17" ry="1.17" transform="translate(-43.71 140.09) rotate(-27.01)"/><rect class="cls-20" x="275.24" y="150.42" width="11" height="10" rx="1.17" ry="1.17" transform="translate(-39.96 144.48) rotate(-27.01)"/><rect class="cls-20" x="286.26" y="144.8" width="11" height="10" rx="1.17" ry="1.17" transform="translate(-36.21 148.87) rotate(-27.01)"/><rect class="cls-20" x="296.95" y="139.35" width="11" height="10" rx="1.17" ry="1.17" transform="translate(-32.57 153.13) rotate(-27.01)"/><rect class="cls-20" x="142.72" y="204.52" width="11" height="10" rx="1.17" ry="1.17" transform="translate(-78.99 90.19) rotate(-27.01)"/><rect class="cls-20" x="153.78" y="198.88" width="11" height="10" rx="1.17" ry="1.17" transform="matrix(0.89, -0.45, 0.45, 0.89, -75.23, 94.59)"/><rect class="cls-20" x="164.84" y="193.24" width="11" height="10" rx="1.17" ry="1.17" transform="translate(-71.46 99) rotate(-27.01)"/><rect class="cls-20" x="175.9" y="187.6" width="11" height="10" rx="1.17" ry="1.17" transform="translate(-67.69 103.41) rotate(-27.01)"/><rect class="cls-20" x="186.97" y="181.96" width="11" height="10" rx="1.17" ry="1.17" transform="translate(-63.92 107.82) rotate(-27.01)"/><rect class="cls-20" x="198.03" y="176.32" width="11" height="10" rx="1.17" ry="1.17" transform="translate(-60.15 112.23) rotate(-27.01)"/><rect class="cls-20" x="209.09" y="170.68" width="11" height="10" rx="1.17" ry="1.17" transform="translate(-56.38 116.64) rotate(-27.01)"/><rect class="cls-20" x="220.15" y="165.04" width="11" height="10" rx="1.17" ry="1.17" transform="translate(-52.61 121.05) rotate(-27.01)"/><rect class="cls-20" x="231.21" y="159.4" width="11" height="10" rx="1.17" ry="1.17" transform="translate(-48.84 125.46) rotate(-27.01)"/><rect class="cls-20" x="242.28" y="153.76" width="11" height="10" rx="1.17" ry="1.17" transform="translate(-45.08 129.87) rotate(-27.01)"/><rect class="cls-20" x="253.34" y="148.12" width="11" height="10" rx="1.17" ry="1.17" transform="translate(-41.31 134.28) rotate(-27.01)"/><rect class="cls-20" x="264.4" y="142.48" width="11" height="10" rx="1.17" ry="1.17" transform="translate(-37.54 138.69) rotate(-27.01)"/><rect class="cls-20" x="275.46" y="136.84" width="11" height="10" rx="1.17" ry="1.17" transform="translate(-33.77 143.1) rotate(-27.01)"/><rect class="cls-20" x="138.18" y="197.61" width="11" height="6" rx="1.01" ry="1.01" transform="translate(-75.44 87.15) rotate(-27.01)"/><rect class="cls-20" x="149.62" y="191.77" width="11" height="6" rx="1.01" ry="1.01" transform="translate(-71.54 91.71) rotate(-27.01)"/><rect class="cls-20" x="161.07" y="185.94" width="11" height="6" rx="1.01" ry="1.01" transform="translate(-67.65 96.27) rotate(-27.01)"/><rect class="cls-20" x="172.51" y="180.1" width="11" height="6" rx="1.01" ry="1.01" transform="translate(-63.75 100.83) rotate(-27.01)"/><rect class="cls-20" x="183.95" y="174.27" width="11" height="6" rx="1.01" ry="1.01" transform="translate(-59.85 105.4) rotate(-27.01)"/><rect class="cls-20" x="195.4" y="168.43" width="11" height="6" rx="1.01" ry="1.01" transform="translate(-55.95 109.96) rotate(-27.01)"/><rect class="cls-20" x="206.84" y="162.6" width="11" height="6" rx="1.01" ry="1.01" transform="translate(-52.05 114.52) rotate(-27.01)"/><rect class="cls-20" x="218.29" y="156.76" width="11" height="6" rx="1.01" ry="1.01" transform="translate(-48.15 119.08) rotate(-27.01)"/><rect class="cls-20" x="229.73" y="150.93" width="11" height="6" rx="1.01" ry="1.01" transform="translate(-44.25 123.64) rotate(-27.01)"/><rect class="cls-20" x="241.18" y="145.09" width="11" height="6" rx="1.01" ry="1.01" transform="translate(-40.35 128.2) rotate(-27.01)"/><rect class="cls-20" x="252.62" y="139.26" width="11" height="6" rx="1.01" ry="1.01" transform="translate(-36.45 132.77) rotate(-27.01)"/><rect class="cls-20" x="264.07" y="133.42" width="11" height="6" rx="1.01" ry="1.01" transform="translate(-32.55 137.33) rotate(-27.01)"/><rect class="cls-20" x="275.51" y="127.59" width="11" height="6" rx="1.01" ry="1.01" transform="translate(-28.65 141.89) rotate(-27.01)"/><rect class="cls-20" x="286.95" y="121.75" width="11" height="6" rx="1.01" ry="1.01" transform="translate(-24.76 146.45) rotate(-27.01)"/><rect class="cls-20" x="147.84" y="213.84" width="17" height="10" rx="1.17" ry="1.17" transform="translate(-82.35 94.89) rotate(-27.01)"/><rect class="cls-20" x="285.82" y="130.02" width="17" height="10" rx="1.17" ry="1.17" transform="translate(-29.22 148.42) rotate(-27.01)"/><rect class="cls-20" x="153.13" y="223.85" width="20" height="10" rx="1.17" ry="1.17" transform="translate(-86.15 99.07) rotate(-27.01)"/><rect class="cls-20" x="293.89" y="152.09" width="20" height="10" rx="1.17" ry="1.17" transform="translate(-38.19 155.17) rotate(-27.01)"/><rect class="cls-20" x="159.2" y="232.95" width="25" height="10" rx="1.17" ry="1.17" transform="translate(-89.35 103.95) rotate(-27.01)"/><rect class="cls-20" x="294.61" y="163.91" width="25" height="10" rx="1.17" ry="1.17" transform="translate(-43.21 157.93) rotate(-27.01)"/><rect class="cls-20" x="164.98" y="247.17" width="11" height="12" rx="1.17" ry="1.17" transform="translate(-96.39 105.06) rotate(-27.01)"/><rect class="cls-20" x="175.67" y="241.72" width="11" height="12" rx="1.17" ry="1.17" transform="translate(-92.75 109.32) rotate(-27.01)"/><rect class="cls-20" x="187.25" y="235.81" width="11" height="12" rx="1.17" ry="1.17" transform="translate(-88.81 113.94) rotate(-27.01)"/><rect class="cls-20" x="198.72" y="229.46" width="13" height="12" rx="1.17" ry="1.17" transform="translate(-84.56 118.91) rotate(-27.01)"/><rect class="cls-20" x="209.52" y="211.97" width="60" height="12" rx="1.17" ry="1.17" transform="translate(-72.87 132.58) rotate(-27.01)"/><rect class="cls-20" x="267.26" y="194.25" width="14" height="12" rx="1.17" ry="1.17" transform="translate(-61.03 146.43) rotate(-27.01)"/><rect class="cls-20" x="280.79" y="188.12" width="11" height="12" rx="1.17" ry="1.17" transform="translate(-56.94 151.22) rotate(-27.01)"/><rect class="cls-20" x="293.74" y="187.89" width="11" height="6" rx="1.17" ry="1.17" transform="translate(-54.06 156.75) rotate(-27.01)"/><rect class="cls-20" x="316.01" y="176.53" width="11" height="6" rx="1.17" ry="1.17" transform="translate(-46.47 165.63) rotate(-27.01)"/><rect class="cls-20" x="301.7" y="177.09" width="11" height="6" rx="1.17" ry="1.17" transform="translate(-48.28 159.19) rotate(-27.01)"/><rect class="cls-20" x="304.43" y="182.44" width="11" height="6" rx="1.17" ry="1.17" transform="translate(-50.41 161.01) rotate(-27.01)"/><path class="cls-21" d="M309.18,91.53,107.57,194.32a3.27,3.27,0,0,1-3.79-.6L58.6,149a3.29,3.29,0,0,1,.79-5.28L294.88,23.61A3.29,3.29,0,0,1,299.6,26l11.3,62A3.27,3.27,0,0,1,309.18,91.53Z"/><polygon class="cls-22" points="302.89 86.88 108.68 185.9 69.89 145.06 292.62 31.5 302.89 86.88"/></svg>