<svg id="Layer_1" data-name="Layer 1" xmlns="http://www.w3.org/2000/svg" viewBox="0 0 448 354"><defs><style>.cls-1{fill:none;}.cls-2{fill:#eeccc7;}.cls-3{fill:#1f213a;}.cls-4{fill:#644652;}.cls-5{fill:#9a585c;}.cls-6{fill:#de7467;}.cls-7{fill:#dcdadb;}.cls-8{fill:#cb6457;}.cls-9{fill:#f08374;}.cls-10{fill:#2c2b43;}.cls-11{fill:#292a43;}.cls-12{fill:#664652;}</style></defs><title>laptopscreen_1</title><path class="cls-1" d="M263.68,83.79l.3-.58-.3.58.2.52Z"/><path class="cls-1" d="M248.53,94.63l-1.66,1.58,1.66-1.58Z"/><path class="cls-1" d="M249,94.5l.35-.18-.35.18-.15.16Z"/><path class="cls-1" d="M262.08,85.74a1.11,1.11,0,0,0,.4,0l-.31.53.31-.53A1.11,1.11,0,0,1,262.08,85.74Z"/><path class="cls-1" d="M238.25,101.83l0-.16.23,0-.23,0Z"/><path class="cls-1" d="M251.66,90.76h0l-.08.05Z"/><path class="cls-1" d="M232,98.31h0l.34-.16Z"/><path class="cls-1" d="M279.22,75.71l-.47.11-.67.51.67-.51Z"/><path class="cls-1" d="M247.1,96.1l1.07-.5,2-.2-2,.2Z"/><path class="cls-1" d="M248.17,95.59l.8-.71,1.22-.43-1.22.43Z"/><path class="cls-1" d="M252.72,88.6l1.1.2-1.1-.2h0a4.16,4.16,0,0,1-1.7.82,4.16,4.16,0,0,0,1.7-.82Z"/><path class="cls-1" d="M274.28,78.27l-.24.59-.14.17.14-.17Z"/><path class="cls-1" d="M205.27,109l.07,0,.29.06-.29-.06Z"/><path class="cls-1" d="M205.83,108.45l-.14.24-.39.22.39-.22Z"/><path class="cls-1" d="M208,114.08h0l-.34-.13-.47,0,.47,0Z"/><path class="cls-1" d="M297.92,75.8a.15.15,0,0,1,0,.08l-1.41,1.19,1.41-1.19A.15.15,0,0,0,297.92,75.8Z"/><path class="cls-1" d="M237.18,101.46l-.09.22.07.17-.07-.17Z"/><path class="cls-1" d="M205.63,109l.28.57-.25.13.25-.13Z"/><path class="cls-1" d="M234.42,100.81l-.4.16.4-.16.17.06h0Z"/><path class="cls-1" d="M237.45,100.94l-.34.36.08.16-.08-.16Z"/><path class="cls-1" d="M248,90.09l.65-.84-.65.84c-.09.15-.16.29-.24.44C247.83,90.38,247.9,90.23,248,90.09Z"/><path class="cls-1" d="M215.52,100.67h0v0Z"/><path class="cls-1" d="M260.81,92.64l-.27-.53,1.47-.75-1.47.75Z"/><path class="cls-1" d="M265,88.58h-2a.14.14,0,0,1-.07,0,.14.14,0,0,0,.07,0Z"/><path class="cls-1" d="M187.48,128.72l-.75.95Z"/><path class="cls-1" d="M256,92.41l.27-.21h0Z"/><path class="cls-1" d="M200.53,124.91l-.61.41Z"/><path class="cls-1" d="M263.88,84.31l1.59-.1-1.59.1Z"/><path class="cls-1" d="M207.74,104.72l-.28.79.28-.79Z"/><path class="cls-1" d="M299.73,75l-.69.21h0Z"/><path class="cls-1" d="M296,74.4l.45-1.39L296,74.4Z"/><path class="cls-1" d="M263.55,86.86l-.21,0,.11-.25-.11.25Z"/><path class="cls-1" d="M254.76,91.72h0l0-.17Z"/><path class="cls-1" d="M160.48,144.64l-.51.22Z"/><path class="cls-1" d="M103.29,165.19l0-.41,0,.41Z"/><path class="cls-1" d="M133,145.49c-.51-.16-1-.37-1.51-.51.54.14,1,.35,1.51.51l2.22-1.13Z"/><path class="cls-1" d="M104,168.77l-1.28-.41h0Z"/><path class="cls-1" d="M106.29,160.75h0Z"/><path class="cls-1" d="M251,92.23l-.44-.33.31-.2-.31.2Z"/><path class="cls-1" d="M253.66,92.31l.78-1.25.39-.32-.39.32Z"/><path class="cls-1" d="M98.33,169.34l.18-.84-.18.84-.87.46h0Z"/><path class="cls-1" d="M97.46,169.8l-.35.05-.1-.08.1.08Z"/><path class="cls-1" d="M251.27,91l-.52.42h0l.52-.42.3-.21Z"/><path class="cls-1" d="M153.31,143.1l.2-.11-.2.11Z"/><path class="cls-1" d="M177.3,130l-.17-.35.63-.37-.63.37Z"/><path class="cls-1" d="M176.37,125.87l-.36,2.05-.52-.06.52.06Z"/><path class="cls-1" d="M176.73,128.87l-.06-.14.15-.17-.15.17Z"/><path class="cls-1" d="M191,129.09l-.24.71.24-.71Z"/><path class="cls-1" d="M187.25,130.55l1.12-1.37.55,1-.55-1Z"/><path class="cls-1" d="M118,161.65l.05-.24-.05.24.89-.09Z"/><path class="cls-1" d="M111,157.81l-1.5-.08-.18.59.18-.59Z"/><path class="cls-1" d="M130.68,155.1l.11-.26.42-.25-.42.25Z"/><path class="cls-1" d="M160.53,144.62h0c.08-.15.18-.3.25-.45C160.71,144.31,160.62,144.47,160.53,144.62Z"/><path class="cls-1" d="M129.14,156.19l1.41-.86.13-.24-.13.24Z"/><path class="cls-1" d="M149.72,143.17l.62,1.22-.34.17-.38.17.38-.17.34-.17Z"/><path class="cls-1" d="M146.18,145.92l.14-.2.24-1.39-.24,1.39Z"/><path class="cls-1" d="M108.9,159.29l-.23.12h0Z"/><path class="cls-1" d="M168.85,139.05l.71-1.22h0Z"/><path class="cls-1" d="M107.91,159.63h0l-.18.19.18-.19Z"/><path class="cls-1" d="M108.6,165.92l.07,0h0Z"/><path class="cls-1" d="M109,166.07l1.68-.55h0Z"/><path class="cls-1" d="M143.46,149.63l-.12.22h0l.12-.22Z"/><path class="cls-1" d="M141,151.47l-.37-.1-.09,0,.08,0Z"/><path class="cls-1" d="M111.38,166.76l-.16.35-.47.53.47-.53h0Z"/><path class="cls-1" d="M107,164.45h0l0-.23Z"/><path class="cls-1" d="M106.12,165.49l.83-1h0Z"/><path class="cls-1" d="M107,164.45l.3.51.23.13-.23-.13Z"/><path class="cls-1" d="M181.43,134.25l-.08-.15h0Z"/><circle class="cls-1" cx="153.53" cy="142.98" transform="translate(-40.84 64.01) rotate(-20.85)"/><path class="cls-1" d="M198,123.76l-.33.28-.49.34.49-.34Z"/><path class="cls-1" d="M177.87,126.37l1-1-1,1-.26.25Z"/><path class="cls-1" d="M131.65,154.62c-.17-.1-.36-.19-.53-.29.17.1.37.19.53.29Z"/><path class="cls-1" d="M212.67,118.25h0Z"/><path class="cls-1" d="M179.09,129.68h0l-.26.13Z"/><path class="cls-1" d="M199.24,124.11l.62.36.08.14-.08-.14Z"/><path class="cls-1" d="M202.91,117.25l-.76.76.76-.76Z"/><path class="cls-1" d="M205.54,114.47l-.07-.14.07.14-.29.81Z"/><path class="cls-1" d="M205,122.74a2.67,2.67,0,0,0,.42-.06l.91.32-.91-.32A2.67,2.67,0,0,1,205,122.74Z"/><path class="cls-1" d="M196.13,119.85l1-1.18-1,1.18-.21.18Z"/><path class="cls-1" d="M202.15,118l.62,0-.31.37.31-.37Z"/><path class="cls-1" d="M193.8,127.34l.43-1,.06-.79-.06.8Z"/><path class="cls-1" d="M189.26,124.35l-1.8.75-1.22.68,1.22-.68Z"/><path class="cls-1" d="M187.13,127.38l.12-.81,1-.29-1,.29Z"/><path class="cls-1" d="M148.12,147.79l-.23.06-.2-.17.2.17Z"/><path class="cls-1" d="M151.87,145.87l-.2,0-1-.05,1,.05Z"/><path class="cls-1" d="M150.92,145l.33.12.36-.05-.36.05-.33-.12-.92-.41Z"/><path class="cls-1" d="M162.22,143.66h0l-.84.7Z"/><path class="cls-1" d="M153.76,143.53l0,0,0,0-1.09.09Z"/><path class="cls-1" d="M155.51,143.77a1,1,0,0,0,.52.12A1,1,0,0,1,155.51,143.77Z"/><path class="cls-1" d="M189.47,125.22h0l.15-.17Z"/><path class="cls-1" d="M158.71,142.89a12.1,12.1,0,0,1-1.76.8,12.1,12.1,0,0,0,1.76-.8Z"/><polygon class="cls-1" points="155.18 143.46 155.19 143.46 155.18 143.46 155.18 143.46"/><path class="cls-1" d="M154.68,143.53l.06,0,.36-.19-.36.19Z"/><path class="cls-1" d="M139.66,150.56l.46.23-.46-.23h0Z"/><path class="cls-1" d="M224.69,97.51l1.52-.67.61-.32-.61.32-1.52.67,0,1Z"/><path class="cls-1" d="M133.56,140.9l.53.35h0Z"/><path class="cls-1" d="M281,72.22l2,.66-2-.66c-.24.12-.5.23-.72.36C280.48,72.44,280.74,72.34,281,72.22Z"/><path class="cls-1" d="M224.69,97.51l-7,1.2c-.24,0-.46,0-.69,0,.23,0,.45,0,.69,0Z"/><path class="cls-1" d="M272.61,84.14l.7-.25h0Z"/><path class="cls-1" d="M265.75,77.43l-.94-.31-.21.12.21-.12Z"/><path class="cls-1" d="M149.09,134.24l.34-.48-.34.48Z"/><path class="cls-1" d="M263.15,78.67l.16-.07-.16.07-.21,0Z"/><path class="cls-1" d="M229.66,112.07l0,.06.14,0-.14,0Z"/><path class="cls-1" d="M144.3,138.25l4.05-.68-4.05.68-2.89,1.55Z"/><path class="cls-1" d="M139.19,139.59h0q-.35.3-.69.55Q138.83,139.89,139.19,139.59Z"/><path class="cls-1" d="M141.24,140l.17-.18h0Z"/><path class="cls-1" d="M179.55,105.65c-1.35.37-2.7.72-4.06,1.1l-.72,1.44.72-1.44C176.85,106.38,178.2,106,179.55,105.65Z"/><path class="cls-1" d="M137.43,139.88l1.66-2.69-1.66,2.69Z"/><path class="cls-1" d="M134.3,140.73l.42.31a1.9,1.9,0,0,0,.89.29,1.9,1.9,0,0,1-.89-.29Z"/><path class="cls-1" d="M299.62,74.69l.41-.36.26-.21h0l-.26.21Z"/><path class="cls-1" d="M174.87,108.42c-.18.42-.34.84-.51,1.26.17-.42.34-.84.51-1.26Z"/><path class="cls-1" d="M125.91,144.11l-.57-.12.57.12Z"/><path class="cls-1" d="M121.46,144h0Z"/><path class="cls-1" d="M194.73,101.76l17.9-9.68Z"/><path class="cls-1" d="M282.76,81.25l-.28,0-.45-.14.45.14Z"/><path class="cls-1" d="M282.91,77.85h0l.32-.26Z"/><path class="cls-1" d="M239.63,87.89l-1.58,1,1.58-1Z"/><path class="cls-1" d="M281.59,81.84l.59-.29-.59.29Z"/><path class="cls-1" d="M290.41,73.47h0L290,74.72Z"/><path class="cls-1" d="M295.56,74.7l2.36,1.1h0Z"/><path class="cls-1" d="M285.77,73.61l.35.3L286,74l.13-.09Z"/><path class="cls-1" d="M296.56,67.43l.11.39h0Z"/><path class="cls-1" d="M94.1,170.06l-.44.32.44-.32Z"/><path class="cls-1" d="M103.07,159.12c3.17-2.09,6.36-4.17,9.51-6.26-3.15,2.1-6.34,4.18-9.51,6.26l-1.33,1.65Z"/><path class="cls-2" d="M88,164.39h0l1.63.49.28-.27.33-.32c1.1-1,2.11-2,3.26-2.9.39-.31.79-.62,1.22-.91.65-.45,2.29-.54,3.41-.71,1.68-.26,3.3-.44,4.95-.65,3.17-2.09,6.36-4.17,9.51-6.26s4-4.05,4.64-5.85a3.88,3.88,0,0,1,1.49-1.74,8.43,8.43,0,0,1,2.75-1.27h3.89l.57.12,2.9-.93.87-.28-.37.35,4.77-2-.53-.35a11,11,0,0,0,5.54-3.72l-1.66,2.69,1.75-.29h0l.72-.36.19-.14v.2l4.16-1.22c.05,0,0,.11.05.18l4.05-.68a10.92,10.92,0,0,0,1.38-.83c2.42-2.1,4.88-4.21,7.14-6.32,1.28-1.2,2.11-2.4,3.28-3.6,1.36-1.39,2.87-2.79,4.32-4.18l-1.81.91c-4.37,2.17-8.77,4.27-13.09,6.51-2.81,1.46-5.52,3.1-8.24,4.69-1.74,1-3.43,2.09-5.14,3.14l-2.77,2.48a1.67,1.67,0,0,1-.06.35,8.22,8.22,0,0,1-1.68.64,17.6,17.6,0,0,1-2.39,0,2.09,2.09,0,0,1-.9-.18c2.81,0,5.34-1.31,7.76-3.43l3-2.25-7.73,3.6-.26-.24,9.21-5.77-4,2,13.3-8.51-.11-.11c-1.07.62-2.12,1.28-3.22,1.85-2.52,1.32-5.05,2.6-7.59,3.88a2.26,2.26,0,0,1-.64.11c.47-.48.84-1.12,1.41-1.41,2.59-1.34,5.28-2.5,7.85-3.87,3.58-1.9,7.07-3.93,10.6-5.91.64-.36,1.27-.74,2.15-1.25l-1.18,1,10-5.08L167.7,117l4.16-2.12c.65-1.31,1.34-2.63,1.95-3.93.2-.43.38-.85.55-1.28s.34-.84.51-1.26c-1.08.66-2.14,1.34-3.21,2s-2.15,1.33-3.27,1.94c-4,2.17-8,4.23-12,6.35-.73.39-1.42.84-2.32,1.37l1.36-1.4,3.46-1.84,0-.1-1,.39-.15-.26,17-8.69.72-1.44c1.36-.38,2.7-.73,4.06-1.1s2.71-.75,4.09-1.2c3.15-1,4.82-.68,6.33-.13l4.75-2.57,17.9-9.68,7.77-4.2c-1.21,2.27,1,.94,2.16.38,2.78-1.3,5.53-2.71,8.29-4.05a12.29,12.29,0,0,1,1.33-.47c-.21.32-.4.64-.65,1-.1.13-.33.28-.22.52l10.11-5.16.17.15c-.54.42-1.1.84-1.61,1.27-3.56,3-8.26,5.21-12.38,7.82-6.69,4.24-13.93,7.67-21.11,11.16-.25.12-.49.26-.73.4l-.72.43,2.46-.66c2.46-.67,4.92-1.34,7.32-1.9a4.94,4.94,0,0,1,1.49-.11l.68.06c.23,0,.45,0,.69,0l7-1.2,1.52-.67.61-.32,1.61-.85a22,22,0,0,0,2.09-1.23c2.1-1.44,4-3,6-4.45.49-.36,1-.71,1.54-1.06l1.58-1h0l.34-.28c1.63-.62,3.29-1.13,4.87-1.9,3.14-1.52,6.22-3.24,9.36-4.77a21.71,21.71,0,0,1,4.18-1.48c1.67-.4,3.18-.54,4.76-.8l.16-.07.69-.29.44-.59,0-.17.21-.31.21-.12.94.31.16,0,.93.23,2-1.15h0l.27,0,.38-.55.69,0,.88-1.57,1.28.55a19.6,19.6,0,0,1,2.34-3.31c1.67-1.68,7.5-4.12,9.66-4.3,1.26-.1,2.76-.46,4.15-.71a15.7,15.7,0,0,0,2-1.37,10.47,10.47,0,0,1,4.78-2.88c.92-.23,1.82-.51,2.71-.83l-5.58-30.06L69.67,145.11Zm54.23-26.81.05,0h.09c4-1.31,6.18-2.89,7.52-5a2.57,2.57,0,0,1-.16.72,3.52,3.52,0,0,1-.29.47l-.34.48,1.25-.75,1.21-.73c-.21.65-.78,1.3-2.46,1.55l-1.21,1.08.82-.21c-.42.61-3.71,1.93-6.36,2.43l0,0-.19,0h0l-.24,0Zm98.67-58.36c1.49-.94,3-1.89,4.53-2.79s3.13-1.74,4.75-2.63l-.39.81c2.59-1.46,4.95-2.71,7.16-4.07,2-1.24,3.89-2.61,5.82-3.92l.25.16L261.1,68l.15.14,11-6.49.26.15-6.22,4.25,1.43-.67.05.11L236.84,82.27l-.26-.26C238,81.08,239.43,80.14,240.88,79.22ZM98.41,151.35l-3.85,2-.2-.16L110.78,143l-4.83,4.25.17.18,27-14.57.69-.56,0,.18-.71.38-2,1.66.12.19,4.54-2.17.11.15-12.52,7-12.82,7.14.8-.32L91.07,156.85l-.35-.27,7.76-5.15Z"/><path class="cls-3" d="M299,73.4c.27,0,.48.21.83.13l.3-.06-.1-.53-.46.11Z"/><path class="cls-3" d="M299.62,74.69l-.58.51.69-.21.33-.1h.37l-.14-.77-.26.21Z"/><path class="cls-3" d="M298.47,76l1.81.41-4.35,1.49,1-.74-.4-.06,1.41-1.19a.15.15,0,0,0,0-.08l-2.36-1.1-.91.42.94-.91-3.52-.46-2,1,.36-1.25L289,74.58,288.9,73l-.59.13-.37.52-1.82.29L286,74l0,0-.52,1.31h0l.47.92c-.62.25-1.43.57-2.23.92a2.19,2.19,0,0,0-.46.42l-.29.34a.14.14,0,0,0,0,.08l-.08,1.19L282,80l1.3.46-1.9.45.63.19.45.14.28,0-.58.31-.59.29.46.07.52.08L282,83.42a7.64,7.64,0,0,1,.85-.39,5,5,0,0,1,.82-.14,5.23,5.23,0,0,1-.88.52c-1.62.49-3.23.95-4.83,1.39-.1,0-.08-.2-.11-.31-.83.35-1.68.73-2.49,1-.22.08-.54-.07-.53-.23a4.89,4.89,0,0,1,.11-.76c.05-.26.12-.53.17-.79l-1.75.41-.09-.23h0l-.7.25.3-1,0-.08-.24,0-.44-.92-.08,0a8.55,8.55,0,0,1-.85.53,1.59,1.59,0,0,1-.78-.32c-.11-.1,0-.32,0-.48l-.69.67-1.47.06-.23.24h.3l-.11.88-.93.29-.3.4a2.77,2.77,0,0,1-.76-.38c-.11-.11,0-.36,0-.54l-.83.74-1.59.1-.17.11-.42,1.88h.32l-.15.34-.11.25.21,0,.3,0h0l-.51,1.45s0,0,0,0h0l-.44.26a.14.14,0,0,0,.07,0h2l-.4.37-1.52-.13-2.28,1.24.36.28.35,0a1.81,1.81,0,0,0,.38,0c.72-.08,1.47-.19,2.27-.3l-1.72,1.53-.47-.25-1.47.75.27.53,0,.05-3.56,2.18,1.24-1.93-.53-.39h0l.19-.28-1.9.49q0-.28,0-.56l-.27.21-.58.44.05-.46-1.08.63.24-.94.51.28.62-.65-1,0h0l0-.17.12-.82-.39.32-.78,1.25-.54.13.76-1.11-.58-.54.42-.46-.3-.05-1,.86-1.11-.1-.52.42.6-.13-.48.38-.31.2.44.33-.79.41h0a4,4,0,0,1,.25.53.27.27,0,0,1,0,.15c0,.05,0,.11,0,.16l.84.24-.08.27-.45.1-.38.19-.14.17.81.35-.81.6.95.25-.33.27h-1.35l-.05.43-1.36.46v.52l.34-.19.19-.11,1.58.23-1,1.13-1.26.23a8.53,8.53,0,0,0-.14,1c0,.09.14.16.31.15.33,0,.72-.13,1.08-.2-.46.44-1.23,1-1.3,1.3s.36.58.63.84a3.31,3.31,0,0,0,.81-.11l-4.15,2.67.42-1.64-1.06.54-1.62-.89-.41,0-1.66-.94-.19.1-2.18,1.2.1-1-.23,0,0,.16,0,.16v0l-1.82,1.1.77-1.28-.07-.17.09-.22-.08-.16.34-.36-1.46,0c-.1,0-.2,0-.21-.1a2.46,2.46,0,0,1,.06-.49l-1.08.86-.16-.32-.17-.06-.4.16-.5.2c0,.33,0,.65,0,1l-1.05.8,1,0-.48.5h.39c.13,0,.23,0,.2.05-.18.31-.41.63-.64.95l-.39.55,1.66.17-.42.19-.4.18-.57.26-1.18.14h0l-1.82,1,4.12-.4-.24.18,1.64-.08-5.54,1.87-.41.59a18.72,18.72,0,0,0-1.14,2.11c-.12.31.17.51.4.68s.5,0,.74,0c-.07.1-.08.12-.1.14l-2,1.35c.78-.1,1.57-.22,2.32-.28.09,0,0,.29-.17.44a4.3,4.3,0,0,1-1,.66c-1,0-1.86-.12-2.89-.09-.58,0-1.57.44-2.05.4a13.18,13.18,0,0,1-2.23-.57,7.31,7.31,0,0,0-.94-.1,3.91,3.91,0,0,0-.63.78c-.16.49-.19.94.26,1.22L218.65,117l-1.08.67.48-1.47-2.51-.33-.57.48.15-.76-.82.1-.28-.15-2,2.64a.15.15,0,0,0,0,.08h1.82c-2.47.86-2.33,1.13-1.08,1.16.07,0,.07.14,0,.21-1.7,1.56-1.5,2.41-.45,2.94.09,0,.08.14-.28.33l-.5,1,.66-.13L211,124.79l.41.16.72.34a3.57,3.57,0,0,1-.47.27c-.44-.07-.83-.17-1.25-.26l-2.07-.37-.92,3-1.21.68c-1.15.18-3.35.81-.93-1.06l-.56-1.09.66-.44.27.06c.63-.48,1.14-.86,1.62-1.24.31-.24.85-.64.8-.72a2.05,2.05,0,0,0-.87-.79,7.34,7.34,0,0,0-.86-.36l-.91-.32a2.67,2.67,0,0,1-.42.06l-1.13-.07a10.33,10.33,0,0,0-.69,1.44c-.09.32.07.55.14.93l-2.23,1.09,0-1.52h0l-.37.17-.22.14-.61.41,0-.71-.08-.14-.62-.36-.09-.13-1.93.4-.85.09-.41.65-1.61-.06,0,.51-.06.79-.43,1,1.68-.9c-.64.6-.86.85-1.17,1.08-1,.72-1.94,1.43-2.91,2.15a3.79,3.79,0,0,0,1,.19c.68,0,1.45-.11,2.16-.17l-4.48,2,.65-1.93.24-.71-1.15.58.45.15.31.1-1.65.29-.55-1-1.12,1.37-.39.08,1.24-1.88-.35-.39-.28.36-.75.95-.46.58.3-2.29-1,.84-1.24,0-1.47.87,1.39-.43L183,132h.31l-1.09.56,2.6.24-1.94.74-1.57.59.08.15a20.41,20.41,0,0,1,2.53,0c.14,0-.5.69-.64.86l-1.93.22v1.22l-1.18,0a3.35,3.35,0,0,0-.54.77c-.09.41.06.73-.07,1.16a2.13,2.13,0,0,1-.85.77,18.37,18.37,0,0,1-1.95.61c.6-.94-.83-.45-1.4-.58a4.25,4.25,0,0,1-1.52-.91,5.72,5.72,0,0,1-.61-.54l-.74.83-.16-.48-1-.07-.6.41-1.12-.49-.12-.22-.71,1.22.86-.19-1,.62.51-.08-1.9,2.18a4.44,4.44,0,0,1-.37.31c.28.06.57.11.88.15l1,.12-1.72.66c-.12,0-.24.06-.58.15l1,.82-.63.59a7.15,7.15,0,0,1,.76,1.63c0,.12-.65.62-1.09.89a1.86,1.86,0,0,1-.88.17c-.09,0,.22-.33.18-.43s-.14-.48-.44-.43c-1.2.2-1.86.16-.61-1l-3.12.56.53-1.62-.8.18-.84.26h0l-.05,0-.51.22c-.78.3-.8.09-.7-.2s.28-.61,0-.64h0l-.54.32-.26-1-2.09,1.07.07,1.11a3.1,3.1,0,0,0-.76.61c-.16.3,0,.51.06.76s.06.41,0,.45c-2.51,1.31-.15.6,0,.78s.37-.06.73-.13c-.86.74-3,1.77-.87,1.72l-1.44,1.2,1.28.48-.85.44.18.16c-.83.5-1.64,1-2.5,1.49a2.87,2.87,0,0,1-1.28.3,5,5,0,0,1,.4-1.31c-.47,0-1.2,0-2,0a3.16,3.16,0,0,0-.84.34c-.34.17-.67.38-1,.57,0-.2-.19-.37-.11-.61.22-.67.53-1.38.81-2.1l-1.7.87a11.08,11.08,0,0,1-1.91-.49c-.1,0-.07-.17,0-.31s.14-.31.17-.44l-.66-.22-.84-.28,0,.08,0-.08.12-.22c-.56.17-1.12.3-1.68.49-.18.06-.37.14-.55.22s-.49.65-.72,1l.09,0,.37.1-.53.17-.37.18c.14.19.49.31.37.58a2.86,2.86,0,0,1-1.06,1.08c-1.05.57-2.27,2.09-1.9,2.44.13.12,0,.51-.27.74-1.52,1.24-2.1,2,.31,1.39a1,1,0,0,1,.33,0l-.35.42a12.18,12.18,0,0,1-2.1.25,7,7,0,0,1-1.9-.53c-.23-.09-.3-.29-.5-.51l-.69.42-1,.14a5.44,5.44,0,0,1-.31.67,24.8,24.8,0,0,0-1.37,2.23c-.14.31.1.56.41.67a5.35,5.35,0,0,0,1.39,0c-2.61,1.39-3.91,1.3-4.81.71a1.46,1.46,0,0,0-.77.17,14,14,0,0,0-1.17.77l-.16-.64c-.62-.06-1.21,0-1.17-.14.27-1-1.64.29-2.15.08a13.48,13.48,0,0,0-2-.45l-.63.52-.52-.27a9.42,9.42,0,0,0-1.31,1.76c-.3.85-.55,1.54-2.55,2.28a15.81,15.81,0,0,0-2,1.16l.56.06-.74.34-.13-.94,1-.36.8-.31,0-.35-2.34.93-.47.53-1.07.88a2.39,2.39,0,0,1,.08-.61c.28-.76.6-1.54.9-2.31h0a.14.14,0,0,0,0-.08l-1.68.55,0,0,0,0-.3-.12h0l-.07,0s0,0,0,0l.26-.52-.74.47-.14.2h-.08l.22-.21-.07-.31-2,1.25,1.4-1.66-.05,0-.23-.13-.3-.51h0l-.83,1-.35.1.56-1.1.1-.6-1.19.5,1.32-1.08-1,.19-.56.88-.83-.37-.79.35,0,.44,0,.41h.08c-.1.48-.21,1-.32,1.43l.77.11,0,0,0,0h0l-1.05,1.65,1.28.41-.23.24a12.16,12.16,0,0,1-1.63,0c-.09,0,.34-.46.53-.71l-2.09,0,.79-.61-.9,0-.61,1-.36-.48-.24,0-.55.81c.19.22.66.36.51.67A6.84,6.84,0,0,1,98,171l-1.73.31.18-.28.25-.4,0-.36-.86.33.24-.4L95,169.89l-.61.06-.5.67,14.56,15.34,194.21-99L300.45,75l-1,.58ZM234.54,105.2h-.05l.09-.09h.06Zm-56.76,34.93a.59.59,0,0,1-.2,0,1.78,1.78,0,0,1,.21-.21,1.36,1.36,0,0,1,.27,0A2.43,2.43,0,0,1,177.78,140.14Zm43.54-19.83a2.33,2.33,0,0,1-.74.39,1.7,1.7,0,0,1-.94-.12c-.21-.17-.21-.46-.28-.66l2.08-1.92-1.56-.35,1.65-.5,2-1.42.28.12-.88.52h1.54l-1.49.76C223.83,117.85,223,119,221.32,120.3Zm8.44-8.2-.14,0,0-.06.13,0Zm6.47-10.64c.12,0,.21,0,.22.06s-.08.13-.12.15-.26.08-.26.06S236.14,101.6,236.23,101.46Zm14.86-7.1,0,0,0,0,0,0Zm19.63-11,.39-.41.24,0-.35.43Zm1.06,1-.43.09.46-.84.31-.08Z"/><path class="cls-4" d="M293.74,71.38l-2,.21.71.86-2,1L290,74.72l2-1,1-1.06a10.56,10.56,0,0,1,1.58.13,3,3,0,0,0,1.75.18L296,74.4l2.33-.91-.48.57c.33.07.63.16,1,.21s.79,0,1.19.07l.26-.21-.12-.65-.3.06c-.35.08-.56-.08-.83-.13l.58-.35.42-.31,0-.17c-.23-.11-.49-.2-.45-.4s.15-.2.32-.34l-.52-2.79-.65.36Zm.14.47a.61.61,0,0,1-.24.07s0-.08,0-.12l.67-.24C294,71.75,294,71.81,293.88,71.85Z"/><path class="cls-5" d="M298.17,68.41a5.54,5.54,0,0,1,.54-1.18l.24-.33-.11-.61-2,1.62Z"/><path class="cls-5" d="M298.41,65.28l-.88.95c-.58-.21-1.19-.45-1.82-.65a2.25,2.25,0,0,0-.55,0c-.11.15-.21.29-.34.44a5,5,0,0,1-1.53,1.31L293,68c-1.16-.17-2.27-.35-3.41-.49a2,2,0,0,0-.61.34c-.23.47-.38.92-.68,1.68l-.79,1.3c-.13.21-.28.43-.43.64a6.43,6.43,0,0,1-.88-.06c-.45-.1-.84-.24-1.26-.36-.58.5-1.16,1-1.72,1.49a1.23,1.23,0,0,0-.22.32l.53.22,1.91,1.25L286,74l0,0,.13-.09-.35-.3.78-.44H286l.84-1.45,2,.95.06,0L291,70.17l1.83.34L294,69.36h.54l.67-1,.74,0,.71-.56-.11-.39,1.89-1.3.37.08L298.6,65l-.18.17Z"/><path class="cls-6" d="M145.88,139.41c.91.59,2.53.35,4.74-.72l.87-.54,3.48-1.22c.39-.23.79-.44,1.17-.68.64-.4,1.31-.8,1.89-1.22a2.92,2.92,0,0,0,.57-.69c.27,0,.55,0,.79.07a4.34,4.34,0,0,1,.52.14c.32-.29.67-.57,1-.86a9.46,9.46,0,0,0,.62-.74,5.79,5.79,0,0,1,.92,0c.45.1.84.24,1.26.38,1-.74.63-2.63,2.7-1.62.86-.44.24-2.26,2.51-1.27.07-.26,0-.39.16-.55.3-.4.67-.81,1-1.21.57.18,1.12.38,1.71.55.38.11.8.19,1.29.3l.59-1.43a10.38,10.38,0,0,1,1.3-.3,2.69,2.69,0,0,1,.56,0l.52.06.36-2.05.48-.26,1,.76,1-1,1.51-1.41L180,124c-.13,0-.24,0-.23,0a6.68,6.68,0,0,1,.5-.92l1,0,1.14-1,.43-1.23,1.42.64,2.06-3.87,1.46.43c.47-1.1.84-2,1.2-2.85.15-.36.26-.71.39-1.06l1.05.09c.15,0,.33,0,.5,0l.29-.4,1.68-.38.24-.49c.87-.08,1.17,2.15,2.7-.75,1-.13,2-.22,3.09-.43a4.94,4.94,0,0,0,1.06-1,3.91,3.91,0,0,0,.48-.82,2.71,2.71,0,0,1,.83.09c.86.51,1.92.78,4.27-.36h0l.12-.06.25-.13-.28-.57-.29-.06-.07,0s0,0,0,0l.39-.22.14-.24-.42-.28,1.48-.55h-1.51l.66-.37-.15-.51c.82-.36-.38-1.1,1.57-1.24l.28-.79c-2.41.29-4.8.56-7.23.87-.44.06-1,.28-1.49.37-1.27.24-2.49.41-3.77.68-.51.11-1.22.5-1.71.59s-1.3.15-1.28-.05c.07-.92-.57-1-2.49,0a2.7,2.7,0,0,1-1.5.15,10.92,10.92,0,0,1-2-.7c-.22-.09-.42-.26-.35-.48s.51-.52.8-.78l.82-.73a9,9,0,0,0-1.17.35c-1,.44-2,1-3,1.36-.52.2-1.43.3-1.44.14-.06-1.07-1.75-.12-3.1.21a12.64,12.64,0,0,1-3.37.1l-.72,1.44.1.23c-.18.42-.34.84-.51,1.26s-.35.84-.55,1.28c-.61,1.3-1.3,2.62-1.95,3.93a26.37,26.37,0,0,1-7.38,7.74c-1.45,1.39-3,2.79-4.32,4.18-1.18,1.2-2,2.41-3.28,3.6-2.26,2.11-4.72,4.22-7.14,6.32a10.92,10.92,0,0,1-1.38.83l-2.82,1.53A1.58,1.58,0,0,0,145.88,139.41ZM185,114.86c1.05,0,2.31-.32,4.06-.57-1.87.49-3.2.82-4.57,1.22-1.15.34-2.34.76-3.33,1.09A6.12,6.12,0,0,1,185,114.86Zm-11.65.24c1.47-1.15,3.06-2.28,4.56-3.43a12,12,0,0,0,1.3-1.24c.41-.42.77-.84,1.15-1.26l.33,0c-.06.12,0,.25-.18.37q-3.45,3.22-7,6.44s-.72.13-.7.06A1.47,1.47,0,0,1,173.38,115.11Zm-7.57,7.57c0-1,.67-1.46,2.69-1.6,1.19-.08,3.48-1.38,5.26-2a16.78,16.78,0,0,1,2.26-.47c1-.23,2-.46,3.08-.76.56-.16,1.18-.46,2-.81a17.46,17.46,0,0,1-7.55,3.91,25.11,25.11,0,0,0-2.77,1.39,14.56,14.56,0,0,1-3.42,1.26C166.52,123.62,165.83,123.21,165.81,122.68Z"/><path class="cls-5" d="M251.27,91l.3-.21.08-.05-.11.08,1.19-2.24a4.16,4.16,0,0,1-1.7.82.62.62,0,0,1-.32,0l-.11-.07c-.27-.22-.34-.65-.9-.57h-.61c-.15.17-.3.34-.43.51l-.65.84c-.09.15-.16.29-.24.44a2.53,2.53,0,0,1-.31.44,7.87,7.87,0,0,1-1.21.49l-1.33,1.3-2,0a.22.22,0,0,1,0,.07l-.14.38-.47,1.31L241,93.93l-1.83,1.52-1-.55-1.38-.15-.52,1.59c-.59-.07-1.28-.13-1.92-.22a7.07,7.07,0,0,1-1-.28c-.17.13-.44.3-.48.39-.18.41-.28.8-.46,1.34l-.47.27.8.13-.4.19-.34.16-.18.49-4.27-1.18-.16.16-1.21-.94-1.52.67,0,1-.58.27,1,.07-.44.39L221.83,99l-.29,1.27a19.45,19.45,0,0,1-3.19.88c-.83.06-1.16-.4-1.77-.59a3.91,3.91,0,0,0-.89,0l-.17.11V101l-.49.15-3.22.9-.42.35c-.47,0-1,0-1.41,0s-.78-.05-1.16-.08c-.23.45-.48.91-.68,1.35a1.91,1.91,0,0,0-.07.57h.79l-1.08.45-.28.79c-1.95.14-.75.88-1.57,1.24l.15.51-.66.37h1.51l-1.48.55.42.28.28,0-.42.28-.39.22,0,.08.29.06,1.5-.41-1.22,1-.25.13-.12.06h0c.16.37.32.74.46,1.12a4.52,4.52,0,0,1,.11.71c-.64.62-1.58,1.47-2.51.65l-1.45,2.9-1.85.47a7.33,7.33,0,0,0-.6,1.25,9.67,9.67,0,0,0-.09,1.73l-3.06-.91-.44,2.12,1-1.18,1.66.59c1.8-1,2.43-.3,1.9,2.46l1.58-1.37-.43-.05,1-1.56h-.73l.34-.41.31-.37-.62,0,.76-.76.2-.73,1-.17,1.51-.24-.89-.38.49-.45h0l-.62,0,.91-.76-.07-.14-.29,0,.21-.2.61-.67h.69l.1.14h0l.29.13.1.14.47,0,.34.13.62-.34-.19.3.09.16.41-.26.06,0-.44.27-.62,1,4.48-2.65-1.34,0,.43-.24.89-2.24,2.58.76-.13.55.4-.06.87-1.19.47-.63a2.54,2.54,0,0,0,.7,0,4,4,0,0,0,.95-.42c.83-.52,1.62-1.06,2-1.33l1-2.37,2.44.69c.3-.48.51-.85.77-1.22a5.54,5.54,0,0,1,.55-.55,2.48,2.48,0,0,1,.79,0c.51.29.83.78,2-.15l.79-1.5c.56-.05,1.14-.13,1.66-.15.74,0,1.44,0,2.26,0l.9-2,1,.33.17.06a7.68,7.68,0,0,0,.72-.63c.3-.35.52-.69.78-1l1.24.32c.33.09.64.2,1,.31a2.61,2.61,0,0,1,.17-.67c.1-.2.34-.43,0-.48L240,95.53l1.2.29.34.08.93-.88,1.58.56.84-1.41.63-.3c-.15-.12-.5-.18-.41-.37a7.64,7.64,0,0,1,.91-1.14,7.24,7.24,0,0,1,1.17.26,5.65,5.65,0,0,1,1,.64l1.33-1.56,1,.2.31-.2-.13-.25Zm-25.85,9.07-2,.42.13-.22,2-.43Z"/><path class="cls-7" d="M193.46,103.86c2.25-.62,4.65-1.53,6.74-1.89a9.1,9.1,0,0,1,2-.16L207.72,99l.14.08-3.21,2.31.39-.09.72-.43c.24-.14.48-.28.73-.4,7.18-3.49,14.42-6.92,21.11-11.16,4.12-2.61,8.82-4.85,12.38-7.82.51-.43,1.07-.84,1.61-1.27l-.17-.15L231.3,85.22c-.11-.24.12-.39.22-.52.25-.33.44-.65.65-1a12.29,12.29,0,0,0-1.33.47c-2.77,1.35-5.52,2.75-8.29,4.05-1.19.56-3.37,1.89-2.16-.38l-7.77,4.2-17.9,9.68L190,104.33c.58-.07,1.14-.1,1.7-.16A10.2,10.2,0,0,0,193.46,103.86Z"/><path class="cls-6" d="M101.74,160.77l1,.33.76-.71.91.32h2.37l.89-.93.18-.19h0l.75-.22.23-.12.45-1,.18-.59,1.5.08c1.51-1.07,3.82-2.06,3.84-3.3,0-.08.35-.38.47-.42.27-.08.48,0,.76-.09.63-.16,1.28-.37,1.91-.54a4.65,4.65,0,0,1,.82-.17c.56,0,1.09,0,1.66-.07a3.27,3.27,0,0,0,.32-.34c1-1.81,1.65-1.4,2.39-.91.1.07.81-.26,1.21-.35s.74-.12,1.2-.18l.43-.39.8.12.47-.33,1.22-.87h0l.29-.33a1.36,1.36,0,0,0,.22-.32,6.22,6.22,0,0,0,.27-1l1.49.14.6-2.14,1.39.11.2-1c-.51-.16-1-.37-1.51-.51a4.45,4.45,0,0,0-.58-.11c-1-.11-2.21,0-3.25-.08a4.15,4.15,0,0,1-1.21-.39l-.54-.29-.57-.12c-2.73,1.39-3.71,1.08-3.89,0a8.43,8.43,0,0,0-2.75,1.27,3.88,3.88,0,0,0-1.49,1.74c-.59,1.8-1.34,3.66-4.64,5.85s-6.34,4.18-9.51,6.26Zm12.83-8.44,4.86-1.53c-2,1.79-3.6,1.45-4.86,1.53l-1.22.38A2.17,2.17,0,0,1,114.57,152.33Z"/><path class="cls-7" d="M167.7,117l1.22-1.17-10,5.08,1.18-1c-.88.51-1.51.89-2.15,1.25-3.53,2-7,4-10.6,5.91-2.56,1.37-5.26,2.53-7.85,3.87-.57.29-.95.93-1.41,1.41a2.26,2.26,0,0,0,.64-.11c2.54-1.28,5.07-2.56,7.59-3.88,1.1-.58,2.15-1.23,3.22-1.85l.11.11-13.3,8.51,4-2-9.21,5.77.26.24,7.73-3.6-3,2.25,0,.14c1.71-1,3.4-2.12,5.14-3.14,2.72-1.59,5.43-3.23,8.24-4.69,4.32-2.24,8.73-4.35,13.09-6.51l1.81-.91a26.37,26.37,0,0,0,7.38-7.74Z"/><path class="cls-8" d="M94.1,170.06h0l.28-.11.61-.06,1.24-2.23c0,.44.5.57.89.71s.67.3.29.8l-.06.07a4.16,4.16,0,0,1-.44.45l.1.08.1.08.35-.05.87-.46.18-.84.79-.21.24,0,.13-1.28.19-.08c.15-.55.26-1,.43-1.49a2.76,2.76,0,0,1,.41-.52,2.55,2.55,0,0,1,.66,0c.42.17.75.4,1.19.56a3.5,3.5,0,0,0,.75-.27l0-.41,0-.44.79-.35.66-.31a8,8,0,0,1,.75-1.37,11.5,11.5,0,0,1,1.37-.41l.45-.58h-.27l-.29-.57h-2.37l-.91-.32-.76.71-1-.33-1.57.8L100,162l-2.39-.86-.27,1.6-2.22,0c-1,2.5-1.55.57-2.55,1l-.36,1-.73.41c-.11-.21-.14-.46-.34-.61a3.49,3.49,0,0,0-.88-.31l-.33.32-.28.27L88,164.39h0l4.9,5.15.88-.49-.68.7.31.32.32-.31Z"/><path class="cls-8" d="M262.94,78.71l-.17,0-.1,0h0L260.41,80l-.21.32a1.3,1.3,0,0,1-.22.1l-1.08-.1a5.93,5.93,0,0,1-.47,1.19A18.08,18.08,0,0,1,257.27,83,10.39,10.39,0,0,1,255.62,84c-.36.14-.65-.13-1-.19s-.75-.1-1.13-.15a7.28,7.28,0,0,0-.73,1.37c-.12.47.37.84-.05,1.28a29.58,29.58,0,0,1-3,2.39c.56-.08.63.35.9.57l.11.07a.62.62,0,0,0,.32,0,4.16,4.16,0,0,0,1.7-.82h0l1.1.2.6.36c.48-.68,1-1.37,1.44-2,.34-.51.63-1,.94-1.5l2.07.86.79.23.56-.55a3.51,3.51,0,0,0,.57.1c.44,0,.91,0,1.36,0l.31-.53a1.09,1.09,0,0,1-.92-1.92,1.32,1.32,0,0,1,.41-.21c.48.11.92.25,1.42.39l.29-.19.3-.58.3-.58.77-1.31,1,.22h0l1.06.1L269,82h0l.76-.81.75-.13.57-.1c1-.19,1-.25,1-.52-.32,0-.68.11-1,.12h-.27c-.2,0-.2-.27-.09-.47a3.82,3.82,0,0,1,.74-.43l.38-1.13,2,.48.14-.17.24-.59.26-.64.19-.48-.2.12c.29-.6.49-1,.74-1.5a1.89,1.89,0,0,1,.57-.2c.62.21,1.2.45,1.28,1l.95-.27.67-.51.47-.11.44-.1c.18-.66.36-1.37.58-2.08,0-.12.24-.29.36-.44a3,3,0,0,1,.55,0c.51.11,1,.25,1.48.38l.92-.37-.53-.22-2-.66c-.24.12-.5.23-.72.36a9.83,9.83,0,0,1-1.13.72c-2,0-1.62,1.24-2.91,1.68l-2.68-.82-.23.61-.05.14-.07,1-.64.26.09-1-.33-.14L271,74.46,270.15,76l-.69,0-.38.55-.27,0-2,1.15-.93-.23-.16,0-.94-.31-.21.12-.21.31,0,.17.05.45-.5.14-.69.29-.16.07Z"/><path class="cls-6" d="M227.41,97.79l.16-.16,4.27,1.18.18-.49h0l.34-.16.4-.19-.8-.13.47-.27c.18-.53.28-.93.46-1.34,0-.1.32-.26.48-.39a7.07,7.07,0,0,0,1,.28c.64.1,1.33.16,1.92.22l.52-1.59,1.38.15,4.69-2.12a.22.22,0,0,0,0-.07l.13-.8,1.69-.19c-.34-.2-.66-.23-.61-.38a8.42,8.42,0,0,1,.6-1.23,4.14,4.14,0,0,0,1.34.35,12.84,12.84,0,0,0,2-.38l.65-.84c.13-.17.29-.34.43-.51h.61a29.58,29.58,0,0,0,3-2.39c.43-.45-.06-.81.05-1.28a7.28,7.28,0,0,1,.73-1.37c.38,0,.77.08,1.13.15s.65.33,1,.19A10.39,10.39,0,0,0,257.27,83a20.41,20.41,0,0,0-4.48.76c-1.65.62-3.41,2.07-5.08,2.72a29.26,29.26,0,0,1-5.42,1.37,13,13,0,0,1-2.65.06h0l-1.58,1c-.53.35-1,.7-1.54,1.06-2,1.48-3.88,3-6,4.45a22,22,0,0,1-2.09,1.23l-1.61.85-.61.32Zm4.62.52h0Z"/><path class="cls-9" d="M178.86,106.65c1.36-.34,3-1.29,3.1-.21,0,.16.92.06,1.44-.14,1-.37,2-.92,3-1.36a9,9,0,0,1,1.17-.35l-.82.73c-.29.27-.74.59-.8.78s.13.39.35.48a10.92,10.92,0,0,0,2,.7,2.7,2.7,0,0,0,1.5-.15c1.92-1,2.55-.89,2.49,0,0,.2.76.15,1.28.05s1.2-.48,1.71-.59c1.28-.27,2.51-.44,3.77-.68.47-.09,1-.32,1.49-.37,2.42-.31,4.82-.58,7.23-.87h0l1.08-.45H208a1.91,1.91,0,0,1,.07-.57c.21-.44.45-.9.68-1.35.39,0,.75.08,1.16.08s.94,0,1.41,0l.42-.35,3.22-.9.5-.46h0l.17-.11,2-1.86c-.24,0-.46,0-.69,0l-.68-.06a4.94,4.94,0,0,0-1.49.11c-2.4.56-4.86,1.23-7.32,1.9l-2.46.66-.39.09-2.48.44a9.1,9.1,0,0,0-2,.16c-2.09.37-4.49,1.27-6.74,1.89a10.2,10.2,0,0,1-1.78.31c-.57.06-1.13.08-1.7.16-1.51-.56-3.18-.89-6.33.13-1.38.44-2.74.83-4.09,1.2s-2.7.72-4.06,1.1A12.64,12.64,0,0,0,178.86,106.65Z"/><path class="cls-7" d="M91.07,156.85l20.26-10.33-.8.32,12.82-7.14,12.52-7-.11-.15-4.54,2.17-.12-.19,2-1.66-27,14.57-.17-.18,4.83-4.25L94.37,153.16l.2.16,3.85-2,.08.08-7.76,5.15Z"/><path class="cls-7" d="M133.8,132.35l-.69.56.71-.38Z"/><path class="cls-6" d="M290.47,65.32a15.7,15.7,0,0,1-2,1.37c-1.17.74-2.37,1.47-3.49,2.23-.45.31-.69.7-1.11,1-.94.76-1.92,1.51-2.89,2.26l2,.66a1.23,1.23,0,0,1,.22-.32c.56-.5,1.15-1,1.72-1.49.42.12.81.26,1.26.36a6.43,6.43,0,0,0,.88.06c.14-.21.3-.43.43-.64l.79-1.3c.3-.76.45-1.21.68-1.68a2,2,0,0,1,.61-.34c1.14.14,2.25.32,3.41.49l.28-.69A5,5,0,0,0,294.82,66c.12-.15.22-.29.34-.44a2.25,2.25,0,0,1,.55,0c.63.21,1.24.44,1.82.65l.88-.95V65.2l.18-.17L298,61.61c-.9.32-1.8.6-2.71.83A10.47,10.47,0,0,0,290.47,65.32Z"/><path class="cls-9" d="M273.26,74.92l.05-.14.23-.61,2.68.82c1.29-.44.93-1.69,2.91-1.68a9.83,9.83,0,0,0,1.13-.72c.22-.13.48-.24.72-.36,1-.75,2-1.5,2.89-2.26.42-.34.66-.73,1.11-1,1.12-.76,2.32-1.49,3.49-2.23-1.39.24-2.89.61-4.15.71-2.16.17-8,2.62-9.66,4.3A19.6,19.6,0,0,0,272.32,75l.33.14Z"/><path class="cls-9" d="M247.71,86.47c1.67-.66,3.43-2.11,5.08-2.72a20.41,20.41,0,0,1,4.48-.76,18.08,18.08,0,0,0,1.15-1.48,5.93,5.93,0,0,0,.47-1.19l1.08.1a1.3,1.3,0,0,0,.22-.1l.21-.32,2.25-1.23h0l.1,0,.17,0,.21,0c-1.58.25-3.09.39-4.76.8a21.71,21.71,0,0,0-4.18,1.48c-3.14,1.52-6.22,3.24-9.36,4.77-1.58.76-3.24,1.27-4.87,1.9l-.34.28a13,13,0,0,0,2.65-.06A29.26,29.26,0,0,0,247.71,86.47Z"/><polygon class="cls-9" points="239.64 87.89 239.63 87.89 239.63 87.9 239.64 87.89"/><path class="cls-9" d="M130,143.88a6.48,6.48,0,0,0,1.42-.51l-.29.5c-.74.12-1.5.26-2.21.34s-1.66.14-2.48.2a4.15,4.15,0,0,0,1.21.39c1,.07,2.27,0,3.25.08a4.45,4.45,0,0,1,.58.11c.54.14,1,.35,1.51.51l2.22-1.13.08-.4a3.18,3.18,0,0,0,.82.18,6,6,0,0,0,1-.2c.1-.2.19-.39.3-.59a6.71,6.71,0,0,1,.49-.82,2.17,2.17,0,0,1,.45-.16l.19-.06,1.92-.5.15-.18.06-.32.37-.67,1.49.1,2.23-1.24.77-.39,2.82-1.53-4.05.68-2.89,1.55h0l-.17.18-3.65,1.78a6.61,6.61,0,0,1-.67.61,6.17,6.17,0,0,1-1.55.14,7,7,0,0,1-1.28-.46,9,9,0,0,0-1.15-.12l.61-.09,1-.14.1-.12-.57-.34h0l-4.77,2C129.53,143.47,129.62,143.79,130,143.88Z"/><path class="cls-7" d="M267.76,65.5l-.05-.11-1.43.67,6.22-4.25-.26-.15-11,6.49L261.1,68l1.9-1.22-.25-.16c-1.93,1.31-3.8,2.67-5.82,3.92-2.21,1.36-4.57,2.61-7.16,4.07l.39-.81c-1.62.89-3.21,1.74-4.75,2.63s-3,1.84-4.53,2.79S238,81.08,236.57,82l.26.26Z"/><path class="cls-9" d="M91.45,165.23l.73-.41.36-1c1-.4,1.51,1.53,2.55-1l2.22,0,.27-1.6L100,162l.19-.45,1.57-.8,1.33-1.65c-1.65.21-3.27.4-4.95.65-1.12.17-2.76.26-3.41.71-.43.29-.83.6-1.22.91-1.16.94-2.16,1.94-3.26,2.9a3.49,3.49,0,0,1,.88.31C91.31,164.76,91.34,165,91.45,165.23Z"/><path class="cls-7" d="M174.77,108.2l-17,8.69.15.26,1-.39,0,.1-3.46,1.84-1.36,1.4c.9-.53,1.59-1,2.32-1.37,4-2.12,8.05-4.18,12-6.35,1.12-.61,2.2-1.27,3.27-1.94s2.13-1.35,3.21-2h0Z"/><path class="cls-6" d="M215.69,100.57a3.91,3.91,0,0,1,.89,0c.61.19.95.65,1.77.59a19.45,19.45,0,0,0,3.19-.88l.29-1.27,2.84.27.44-.39-1-.07.58-.27,0-1-7,1.2Z"/><path class="cls-10" d="M134.66,141.6h.11l-.21.1-1,.14-.61.09a9,9,0,0,1,1.15.12,7,7,0,0,0,1.28.46,6.17,6.17,0,0,0,1.55-.14,6.61,6.61,0,0,0,.67-.61l3.65-1.78.17-.18h0l-.14-.11-1.93.85-1.85.73,2.42-2-.72.36h0q-.35.3-.69.55h0a8.35,8.35,0,0,1-1,.65,5.24,5.24,0,0,1-.67.31,3.45,3.45,0,0,1-.68.19,2.37,2.37,0,0,1-.5,0,1.9,1.9,0,0,1-.89-.29l-.42-.31,2-.48,1.13-.36,1.66-2.69a11,11,0,0,1-5.54,3.72l.53.35Z"/><path class="cls-10" d="M142.21,137.58l-.33.11.24,0Z"/><path class="cls-10" d="M142.33,137.61c2.65-.5,5.94-1.82,6.36-2.43l-.82.21,1.21-1.08s0,0,0-.07l.34-.48a3.52,3.52,0,0,0,.29-.47,2.57,2.57,0,0,0,.16-.72c-1.34,2.07-3.56,3.64-7.52,5h0S142.36,137.59,142.33,137.61Z"/><path class="cls-10" d="M128.39,141.18a2.09,2.09,0,0,0,.9.18,17.6,17.6,0,0,0,2.39,0,8.22,8.22,0,0,0,1.68-.64,1.67,1.67,0,0,0,.06-.35l2.77-2.48,0-.14C133.74,139.87,131.2,141.21,128.39,141.18Z"/><path class="cls-9" d="M125.35,144h-3.89C121.64,145.07,122.62,145.38,125.35,144Z"/><path class="cls-4" d="M126.45,144.4c.82-.06,1.63-.1,2.48-.2s1.47-.23,2.21-.34l.29-.5a6.48,6.48,0,0,1-1.42.51c-.39-.09-.48-.41-.69-.63l.37-.35-.87.28-2.9.93h0Z"/><path class="cls-9" d="M136.3,140.24l-1.58.79a1.9,1.9,0,0,0,.89.29,2.37,2.37,0,0,0,.5,0,3.45,3.45,0,0,0,.68-.19,5.24,5.24,0,0,0,.67-.31,8.36,8.36,0,0,0,1-.65h0q.33-.25.69-.55l-1.75.29h0Z"/><path class="cls-9" d="M138.49,140.15a8.36,8.36,0,0,1-1,.65A8.35,8.35,0,0,0,138.49,140.15Z"/><path class="cls-4" d="M141.61,139.36l-.34.34.14.11,2.89-1.55c0-.06,0-.19-.05-.18l-4.16,1.22.3.54Z"/><path class="cls-6" d="M139.34,140.55l1-.71-.3-.54v-.2l-.19.14-2.42,2Z"/><path class="cls-4" d="M149.09,134.32c1.69-.25,2.25-.9,2.46-1.55l-1.21.73-1.25.75h0S149.05,134.31,149.09,134.32Z"/><path class="cls-9" d="M264.44,77.72l-.44.59.5-.14Z"/><path class="cls-10" d="M142.12,137.65l.19,0,0,0s.07-.07.06-.08h-.13l-.05,0-.08.07Z"/><path class="cls-4" d="M233.43,100.48l-.9,2c-.81,0-1.51,0-2.26,0-.52,0-1.1.1-1.66.15l-.79,1.5c-1.18.93-1.49.44-2,.15a2.48,2.48,0,0,0-.79,0,5.54,5.54,0,0,0-.55.55c-.27.38-.47.74-.77,1.22l-2.44-.69-1,2.37c-.41.27-1.2.81-2,1.33a4,4,0,0,1-.95.42,2.54,2.54,0,0,1-.7,0l-.47.63-.87,1.19-.4.06.13-.55-2.58-.76-.89,2.24-.43.24,1.34,0-4.48,2.65.62-1,0-.05-.09-.16-.43,0-.34-.13-.47,0-.1-.14-.5.14.21-.28h0l-.1-.14H206l-.61.67.08.15.07.14-.29.81h0l.63.08-1.12.37.89.38-1.51.24-1,.17-.2.73h0l-.14.72-.31.37-.34.41h.73l-1,1.56.43.05-1.58,1.37c.54-2.76-.1-3.41-1.9-2.46l-1.66-.59-1,1.18-.21.18h0l.27.65-.56.15-.2.11L196,122l-.65.43-2.77-.55-.7,2.56.28-.11-.45,1a7.69,7.69,0,0,0,1.21,1.34c.13.1.88-.18,1.35-.29l.06-.8,0-.51,1.61.06.41-.65.85-.09.49-.34.33-.28.1.17.06.07h0l1,0,.09.13.62.36.08.14.8.16.37-.17h0l.56-1c.07-.12.11-.23,0,0l.44-1.74a3.77,3.77,0,0,1,.93-.27c.4.14.62.41,1,.56a3.09,3.09,0,0,0,.83-.18l.16-.68.93-.34.17-.07.17-.18-1.49,0,.32-.17c.34-.75.59-1.29.89-1.85a2.93,2.93,0,0,1,.81-.23c.69.28,1.31.6,2.15,1l1.07.21,1.91-1.37h0a.15.15,0,0,1,0-.08l-.75-1,.53-.3H212l2-1.3.28.15c.39-.47.76-.94,1.2-1.41a2.66,2.66,0,0,1,.64-.38c.54.21,1,.45,1.77.78l1.38-.42c.32-.49.49-.72.61-.94s.31-.5.21-.49c-1.29.05-.66-.35-.17-.7l.93-2.29,1.14-.47,1.08.65,1.33-1.07,2.33,1c.62-.33,1.26,1,2.66-.85l.41-.59a4.1,4.1,0,0,0-.31-.41c-.1-.11-.24-.19-.14-.42-.47-.51,1.28-2.59,3.63-4.2l.48-.5-1,0,1.05-.8c0-.35,0-.67,0-1l.5-.2.4-.16Zm-27.61,15.66-.15,0h0l.23-.07Z"/><path class="cls-10" d="M192.89,126.67a7.69,7.69,0,0,1-1.21-1.34L190,124l.84-.31a10,10,0,0,0,.65-2c0-.15-.85,0-1.31.08l-1.82.48c.38-.28.81-.56,1.12-.84.13-.12.1-.37,0-.35-2.32.33-4.67.7-7,1.06l-1.14,1-.85.83-1.51,1.41-1,1-.26.25c-.18.17-.36.33-.49.48l-.17.19a.26.26,0,0,0-.07.16c0,.13.4.07,1.5-.39.18-.07.53,0,.49,0a2.9,2.9,0,0,1-.69.69c-.41.28-.91.52-1.37.78l-.15.17.06.14c.49.1,2.86-1.84,1.84-.14a2.84,2.84,0,0,1-.8.56l-.63.37.17.35,1.78-.32h0c.05.2.12.39.18.58a4,4,0,0,1,.14.6c.1.74.15,1.51.22,2.3l-3.28-.11-.85,1.31a4,4,0,0,0-.9-.34,7.09,7.09,0,0,0-1.09,0l-.58,1c-.06.1-.13.26-.2.29a1.58,1.58,0,0,1-.53.12c-.44,0-.85,0-1.28-.06l-.63,1.58.4-.13-1,1.23,1.12.49.6-.41,1.35-.28-.37.34.16.48.74-.83a5.72,5.72,0,0,0,.61.54,4.25,4.25,0,0,0,1.52.91c.57.14,2-.36,1.4.58a18.37,18.37,0,0,0,1.95-.61,2.13,2.13,0,0,0,.85-.77c.13-.42,0-.75.07-1.16a3.35,3.35,0,0,1,.54-.77l1.18,0v-1.22l1.93-.22c.13-.17.77-.84.64-.86a20.41,20.41,0,0,0-2.53,0c-.2-.14-.51-.23-.58-.44-.23-.71-.38-1.45-.55-2.18l.86-.39.19,2.86h0l1.57-.59,1.94-.74-2.6-.24,1.09-.56H183l1.21-2.76-1.39.43,0-.64,1.5-.23,1.24,0,1-.84-.3,2.29.46-.58.75-.95.28-.36h0l1.54-1.14L191,126l-.33,2.43h0l-.85.47,1.19.21-.24.71-.65,1.93,4.48-2c-.71.06-1.48.16-2.16.17a3.79,3.79,0,0,1-1-.19c1-.72,2-1.43,2.91-2.15.31-.23.53-.48,1.17-1.08l-1.68.9.43-1C193.77,126.49,193,126.77,192.89,126.67Zm-7.24-.51c-.37.32-.59.53-.86.73a1.14,1.14,0,0,1-.38,0,5,5,0,0,1,.58-.62A3.94,3.94,0,0,1,185.65,126.16Zm-3.32-.6,1.18-.09.46-.83c.22,0,.64-.09.63,0a3.09,3.09,0,0,1-.33.81l-.6.16a5.82,5.82,0,0,1-1,.59c-.31.11-.74.13-.8,0S182.16,125.79,182.33,125.56Zm-2.51,1c.51-.13,1-.23,1.8-.4l-.81.86c-.43,0-.87,0-1.27-.1C179.49,126.88,179.77,126.54,179.81,126.53Zm.83,2.3,1.1-.56.12.15-1.11.61Zm1.77,2.61a3,3,0,0,1-.86.16c-.11,0,0-.2,0-.31l.72-.4a2.1,2.1,0,0,1,.53.21S182.52,131.4,182.41,131.43Zm-.22-2.81a2.53,2.53,0,0,1,.29-.86,7.76,7.76,0,0,1,1.11-.43l-.82,1.14Zm3-.57-.68-.06h-.89a12.48,12.48,0,0,1,1.5-.9c.32-.14,1-.12.93,0A6,6,0,0,1,185.16,128.06ZM190,122c.61,0,1,0,1.1.11s-.26.45-.41.68a8.3,8.3,0,0,1-1.34.2C189.29,123,189.66,122.54,190,122Zm-1.28,1.48-.42.39-1.29.25a4.31,4.31,0,0,1,.84-.62A2.3,2.3,0,0,1,188.75,123.48Zm-2-.21,1.34-.24-1.09.76a4,4,0,0,1-.74.27c-.15-.11-.17-.31-.24-.48Zm.65,1.83,1.8-.75-1.09,1.08a7.15,7.15,0,0,1-1.08.65,2,2,0,0,1-.84-.29Zm.24,2.11-.56.17.12-.81,1-.29Zm.86-.43-.13-.19,1.44-.7.08.18Zm1.2-1-.28-.54h0l-1.26.8-.21-.12,1.6-1.44,0,.58h0l.83.32Z"/><path class="cls-5" d="M108.39,164.76a2.44,2.44,0,0,1,.17-.75,8.18,8.18,0,0,1,.68-.94l.61-.12.39-.6,2.37-.19,1.05-2.26.59-1.17c.42,0,.87.06,1.26.12.79.12,1.56.26,2.34.39l.59-.48-.71-.1c.48-.76,1-1.56,1.51-2.38a2.17,2.17,0,0,1,.62-.62,1.32,1.32,0,0,1,.75-.12c.65.27,1.23.58,2.09,1l.88-.21.47-1,1.62-.32.77-1.46a10.11,10.11,0,0,1,1.12.2,11.22,11.22,0,0,1,2.06.75c.12.07-.43.59-.74.9a8.5,8.5,0,0,1-.8.62l1.06.22,1.41-.86.13-.24.11-.26.42-.25.43,0c-.17-.1-.36-.19-.53-.29a1.18,1.18,0,0,1-.42-.35c-.13-.2.08-.58.07-.86l.53-1.5.93-.14c.81-.57,1-.83.82-1s-1.23-.06-1.25-.38-.65-.24-1-.35l-.93.76-1.34-.57-1.22.87-.47.33-.8-.12-.43.39c-.46.07-.82.09-1.2.18s-1.1.42-1.21.35c-.74-.49-1.37-.9-2.39.91a3.27,3.27,0,0,1-.32.34c-.58,0-1.1,0-1.66.07a4.65,4.65,0,0,0-.82.17c-.63.17-1.29.38-1.91.54-.28.07-.49,0-.76.09-.12,0-.47.34-.47.42,0,1.24-2.33,2.22-3.84,3.3l-1.5-.08-.18.59.21.77-.62.29h0l.31.37-1.37-.1-.18.19-.89.93h0l.29.57h.27l-.45.58a11.5,11.5,0,0,0-1.37.41,8,8,0,0,0-.75,1.37l-.66.31.83.37.56-.88,1-.19-1.32,1.08,1.19-.5-.1.6.59-.26.15-.17.19-.27.27,0-.11.52-.17.62.23.13.05,0h0Zm-1.94-.91v0h0v0h0v0S106.47,163.82,106.45,163.85Z"/><path class="cls-11" d="M139.31,152.27l-.81.22-1.76-.72c-.34.34-1,.84-1,1,.23.93-1.21,1.19-2.15,1.49a12.19,12.19,0,0,1-2,.35h0l-.43,0-.42.25-.11.26-.13.24-1.41.86c-.74.8-1.43,1.61-2.27,2.41a3.37,3.37,0,0,1-1.57.62l-1.16.81.89-1.88-1.09.55-.5-.48-.31-.21-.7.31-.12-.62-1.05.29a13.49,13.49,0,0,0-1.29,2c-.09.23.62.22.81.27l-1.45.93.17.23-.6.1-.91.94,0,0,.52.27.63-.52a13.48,13.48,0,0,1,2,.45c.51.21,2.41-1.08,2.15-.08,0,.15.55.08,1.17.14l.16.64a14,14,0,0,1,1.17-.77,1.46,1.46,0,0,1,.77-.17c.91.59,2.2.67,4.81-.71a5.35,5.35,0,0,1-1.39,0c-.3-.11-.55-.36-.41-.67A24.8,24.8,0,0,1,131,158.9a5.44,5.44,0,0,0,.31-.67l1-.14.69-.42c.2.22.26.42.5.51a7,7,0,0,0,1.9.53,12.18,12.18,0,0,0,2.1-.25l.35-.42a1,1,0,0,0-.33,0c-2.41.59-1.84-.16-.31-1.39.28-.23.4-.62.27-.74-.37-.35.85-1.87,1.9-2.44a2.86,2.86,0,0,0,1.06-1.08c.12-.26-.23-.39-.37-.58l-.67.22Zm-14.86,10.42v0Z"/><path class="cls-12" d="M281.29,76.66l-2.54-.84-.67.51-.95,1.44L274,78.85l-.14.17-.27,1.32-1.53.1c0,.27-.06.34-1,.52l-.57.1-.75.13L269,82l0,.13h-.07L269,82l-1.84-.39-1.06-.1h0l-1.78,1.09-.3.58-.3.58.2.52,1.59-.1.83-.74c0,.19-.12.43,0,.54a2.77,2.77,0,0,0,.76.38l.3-.4.93-.29.11-.88h-.3l.23-.24,1.47-.06.69-.67c0,.16-.11.38,0,.48a1.59,1.59,0,0,0,.78.32,8.55,8.55,0,0,0,.85-.53l1.39-1,.3.2-1.61.88.44.92.24,0,0,.08.64.44-.24.31h0l.09.23c.5-.29,1-.6,1.49-.86a7.7,7.7,0,0,1,1-.35l-.73.8c-.05.26-.11.53-.17.79a4.89,4.89,0,0,0-.11.76c0,.16.3.31.53.23.82-.28,1.66-.67,2.49-1l1.8-1.71-.6.15c.15-.47.29-.93.48-1.41a1.8,1.8,0,0,1,.48-.27c.44.12.85.27,1.25.42a1.47,1.47,0,0,1,.29.18l.59-.29.29-.36-.45-.14-.63-.19,1.9-.45L282,80l.87-.76c-.13-.18-.34-.33-.35-.56s.27-.42.43-.63a.14.14,0,0,1,0-.08l0-.08h0l.32-.26h0a2.19,2.19,0,0,1,.46-.42c.8-.35,1.61-.67,2.23-.92l-.47-.92h0l-.21.1.21-.1c-.08,0-.15-.07,0,0h0L286,74l-.51.34-1.91-1.25-.92.37ZM267.35,84l-.07,0,.07,0Zm14.27-5.43-1.12.13.46-.49,1,0Z"/><path class="cls-4" d="M170.29,137l.63-1.58c.42,0,.83.05,1.28.06a1.58,1.58,0,0,0,.53-.12c.06,0,.14-.19.2-.29l.58-1a7.09,7.09,0,0,1,1.09,0,4,4,0,0,1,.9.34l.85-1.31,3.28.11c-.07-.79-.12-1.56-.22-2.3a4,4,0,0,0-.14-.6c-.06-.19-.12-.39-.18-.58h0l-.26.13-.28.14-.1.05-.06,1.52c-.76-.07-1.21-.16-1.76-.16a13.2,13.2,0,0,0-1.48.2l.11-.51-2.6-.81-1.13,2.46h0l-.12.09,1.17.19h0l0,0,0,0h0c-1.92,1.15-3.19,1.37-4,.79-.17-.13-.67-.06-1-.09-.14.13-.36.29-.4.39-.15.38-.24.75-.44,1.43a29.93,29.93,0,0,1-3.14,1.3c-.58.17-.91-.21-1.4-.3a3.35,3.35,0,0,0-.77.15l-.82,1.74.12-.07,0,0,0,0-.12.07-.18.1.53.21-3.62,2.3c-.91-.45-1.52-.76-2.18-1a2.26,2.26,0,0,0-.66.3,8.06,8.06,0,0,0-.56,1.26c0,.09.2.09.31.14h0l-.75.45.94,0-.8.11-.15.8h0l0,0h0c.1,0,.05,0,0,0h0l-.2.11.45.43,0,0,0,.05.41-.23.8-.44.09.37h0l.3-.06-.22.21h0a.71.71,0,0,0,.32.31,1,1,0,0,0,.52.12,3.26,3.26,0,0,0,.92-.19,12.1,12.1,0,0,0,1.76-.8l-1.23-.06,1-.47.17-1.4a8.45,8.45,0,0,1,1.31-.1,5.61,5.61,0,0,1,1.18.37l-.22.54.49-.33,2.9,1.12,3-1.36c0-.34,0-.62,0-.91l-.26.09-.26.57-2.7,1-.24-1.57,1.15-.59-1.24,0,.22-.12c.33-.73.54-1.22.8-1.73a2.06,2.06,0,0,1,.58-.29c.68.28,1.32.58,2.17,1l1-.19.07-.2.95-.33h0l.12.22,1-1.23Z"/><path class="cls-4" d="M249.53,91.7l-1.33,1.56a5.65,5.65,0,0,0-1-.64,7.24,7.24,0,0,0-1.17-.26,7.64,7.64,0,0,0-.91,1.14c-.09.18.26.25.41.37l-.63.3-.84,1.41L242.51,95l-.93.88-.34-.08-1.2-.29-1.63,3.16c.38,0,.14.28,0,.48a2.61,2.61,0,0,0-.17.67c-.32-.1-.62-.21-1-.31l-1.24-.32c-.26.34-.48.68-.78,1a7.68,7.68,0,0,1-.72.63h0l.16.32,1.08-.86a2.46,2.46,0,0,0-.06.49c0,.06.1.1.21.1l1.46,0-.34.36.08.16-.09.22.07.17,1.12-.18.23,0,2.27-.31,1.66.94c1.79-.78,3-1.6,3.61-2.76a14.27,14.27,0,0,1,2-2.16v-.52l1.36-.46.05-.43h1.35l.33-.27-.95-.25-2,.2-1.07.5-.23.11,1.66-1.58h0l.46-.13.35-.18L250,94l.44-.53c0-.05,0-.11,0-.16a.27.27,0,0,0,0-.15,4,4,0,0,0-.25-.53l-.13,0h0l.13,0h0l.79-.41-.44-.33Zm-8,4.25,0,0h0Zm4-2.08h0Z"/><path class="cls-12" d="M112,165.06l.43.14.55.22.51-1h0l-.28-.54,1.33-3,1.13-.32,1.67.93.83-.42-.06.27-.05.24.89-.09h0l.6-.1-.17-.23,1.45-.93c-.19-.05-.9,0-.81-.27a13.49,13.49,0,0,1,1.29-2l1.05-.29.12.62.7-.31,1.37-.52-.05.25-1,.48.5.48,1.09-.55-.89,1.88,1.16-.81a3.37,3.37,0,0,0,1.57-.62c.83-.8,1.52-1.61,2.27-2.41l-1.06-.22a8.5,8.5,0,0,0,.8-.62c.31-.31.86-.84.74-.9a11.22,11.22,0,0,0-2.06-.75,10.11,10.11,0,0,0-1.12-.2l-.77,1.46-1.62.32-.47,1-.88.21c-.86-.42-1.44-.74-2.09-1a1.32,1.32,0,0,0-.75.12,2.17,2.17,0,0,0-.62.62c-.54.81-1,1.62-1.51,2.38l.71.1-.59.48c-.78-.13-1.55-.27-2.34-.39-.4-.06-.84-.08-1.26-.12l-.59,1.17-1.05,2.26-2.37.19-.39.6-.61.12a8.18,8.18,0,0,0-.68.94,2.44,2.44,0,0,0-.17.75l.51.6-.26.52,0,.08h0l3.46-1.88-1.48,1.45h0a.14.14,0,0,1,0,.08h0l.94,0Z"/><path class="cls-11" d="M154.74,143.5l-.06,0-.69.38-1,.54.8-.84,0-.05,0,0-1.09.09-1,.08-.74,1.28.33.12.36-.05a1,1,0,0,1-.1.14h-.24l-.09,0-.09,0-.42.6,1,.05.2,0,1.1-.24a20.73,20.73,0,0,0-2.11,1,2.35,2.35,0,0,1-2,.46,3.32,3.32,0,0,0-.51,0l-.7.65.2.17.23-.06.12,0c-.12.25-.38.65-.3.64A20.55,20.55,0,0,0,150,148c.73-.17,1.5-.39,2.84-.75L150,148.82l.67.19c-2.12.6-3.79,1.09-5.44,1.54-.21.06-.31-.12-.46-.19,0,.13-.11.29-.17.44s-.07.27,0,.31a11.08,11.08,0,0,0,1.91.49l1.7-.87c-.28.72-.59,1.42-.81,2.1-.08.24.07.41.11.61.33-.19.66-.4,1-.57a3.16,3.16,0,0,1,.84-.34c.79,0,1.52,0,2,0a5,5,0,0,0-.4,1.31,2.87,2.87,0,0,0,1.28-.3c.86-.45,1.67-1,2.5-1.49l-.18-.16.85-.44-1.28-.48,1.44-1.2c-2.11.06,0-1,.87-1.72-.36.07-.69.18-.73.13s-2.53.52,0-.78c.07,0,0-.3,0-.45s-.22-.46-.06-.76a3.1,3.1,0,0,1,.76-.61l-.07-1.11-1.64-.87Z"/><path class="cls-10" d="M168.62,138.16l-.07.2-1,.19c-.86-.39-1.5-.69-2.17-1a2.06,2.06,0,0,0-.58.29c-.27.51-.47,1-.8,1.73l-.22.12,1.24,0-1.15.59.24,1.57,2.7-1,.26-.57.26-.09c0,.28,0,.57,0,.91l-3,1.36-2.9-1.12-.49.33.22-.54a5.61,5.61,0,0,0-1.18-.37,8.45,8.45,0,0,0-1.31.1l-.17,1.4-1,.47,1.23.06h0a12.1,12.1,0,0,1-1.76.8,3.26,3.26,0,0,1-.92.19,1,1,0,0,1-.52-.12.71.71,0,0,1-.32-.31h0l-.41.11,1.64.87,2.09-1.07.26,1,.54-.32v0h0v0h0l.2-.12-.2.12c.26,0,.07.37,0,.64s-.08.5.7.2l.51-.22.05,0c.08-.15.18-.3.25-.45s.25-.53.37-.79l.75.2.32.09h0l-.84.7h0l.8-.18-.53,1.62,3.12-.56c-1.26,1.14-.6,1.18.61,1,.29,0,.36.25.44.43s-.27.42-.18.43a1.86,1.86,0,0,0,.88-.17c.43-.27,1.12-.76,1.09-.89a7.15,7.15,0,0,0-.76-1.63l.63-.59-1-.82c.34-.08.46-.1.58-.15l1.72-.66-1-.12c-.3,0-.6-.09-.88-.15a4.44,4.44,0,0,0,.37-.31l1.9-2.18-.51.08,1-.62-.86.19.71-1.22Zm-4.5,1.36.07,0Zm-5.66,2.85h0Zm.27.53h0Z"/><path class="cls-11" d="M226.74,110l-2.33-1L223.07,110l-1.08-.65-1.14.47-.93,2.29c-.49.35-1.11.76.17.7.1,0-.11.32-.21.49s-.29.45-.61.94l-1.38.42c-.73-.34-1.23-.57-1.77-.78a2.66,2.66,0,0,0-.64.38c-.44.47-.8.94-1.2,1.41l.82-.1-.15.76.57-.48,2.51.33-.48,1.47,1.08-.67,1.34-1.17c-.44-.27-.42-.72-.26-1.22a3.91,3.91,0,0,1,.63-.78,7.31,7.31,0,0,1,.94.1,13.18,13.18,0,0,0,2.23.57c.48,0,1.48-.38,2.05-.4,1,0,1.89.09,2.89.09a4.3,4.3,0,0,0,1-.66c.17-.14.26-.44.17-.44-.74.06-1.54.18-2.32.28l2-1.35s0,0,.1-.14c-.24,0-.63.1-.74,0s-.51-.37-.4-.68a18.72,18.72,0,0,1,1.14-2.11C228,110.92,227.35,109.64,226.74,110Z"/><path class="cls-11" d="M210.07,119.63l-1.07-.21c-.84-.41-1.46-.73-2.15-1a2.93,2.93,0,0,0-.81.23c-.29.56-.54,1.11-.89,1.85l-.32.17,1.49,0,.55-.13-.09.16-.63.15-.17.07.35,1.2-.94.53.91.32a7.34,7.34,0,0,1,.86.36,2.05,2.05,0,0,1,.87.79c0,.08-.5.47-.8.72-.48.38-1,.76-1.62,1.24l-.27-.06-.66.44.56,1.09c-2.42,1.87-.22,1.24.93,1.06l1.21-.68.92-3,2.07.37c.42.08.81.19,1.25.26a3.57,3.57,0,0,0,.47-.27l-.72-.34-.41-.16,1.18-1.07-.66.13.5-1c.36-.19.37-.29.28-.33-1.05-.53-1.25-1.38.45-2.94.08-.07.08-.21,0-.21-1.25,0-1.39-.3,1.08-1.16H212Zm-4.86.84.06,0Z"/><path class="cls-12" d="M298.17,68.41l-1.36-.5-.14-.09h0l-.71.56-.74,0-.67,1H294l-1.22,1.15L291,70.17l-2.06,2.47-.06,0-2-.95L286,73.17h.56l-.78.44.35.3,1.82-.29.37-.52.59-.13.09,1.61,1.43-1.11h0l2-1-.71-.86,2-.21a13.79,13.79,0,0,1,1.3-1c.76-.46,1.58-.87,2.37-1.29.43-.23.87-.43,1.3-.65-.13.2-.36.44-.36.58s.21.26.33.38l.65-.36-.4-2.16-.24.33A5.54,5.54,0,0,0,298.17,68.41Zm-9.27,4.23.07,0Z"/><path class="cls-4" d="M262.17,86.24c-.46,0-.92,0-1.36,0a3.51,3.51,0,0,1-.57-.1l-.56.55.44.86-2.88.69-1.85,1.7-.53,0,.3-.95-.71.13-.6-.36-1.1-.2h0l-1.19,2.24.11-.08h0l-.09.06-.3.21,1.11.1,1-.86.3.05-.42.46.58.54.56-.26.39-.32-.12.82.28,0-.23.2,1,0,.52.5h0q0,.28,0,.56l3.12-1.82-1.22,1.33-.19.28h0l1.23-.17-.48.45,1.81-.73,1.47-.75-.82-1-.36-.28,2.28-1.24-.11-.24a.14.14,0,0,1-.07,0c-2.79,1.22-.86-.46-1.07-.83l1.48-.81.11-.25.15-.34h-.32l.42-1.88-1.23,1.3Z"/><path class="cls-4" d="M145.29,150.55c1.65-.44,3.32-.93,5.44-1.54l-.67-.19-3,.52.84-1.49-.2-.17c-.08-.17-.28-.31-.22-.53a3.44,3.44,0,0,1,.56-.77,2.61,2.61,0,0,0,.79.07c.93-.14,1.9-.34,2.86-.52l-1-.05-1.21.1.17-.26,1.46-.44.09,0,.09,0,0-.08-.33-.12-.92-.41-.38.17-.19.08c-.76-.26-1.46-.51-2.2-.72a3,3,0,0,0-.67.23l-.24,1.39-.14.2-.21.3.08.34-1.41-.28c-.74.6-1.56,1.2-2.17,1.8a4.82,4.82,0,0,0-.76,1.2l1.74.35-.12.22.84.28.66.22C145,150.42,145.07,150.6,145.29,150.55Z"/><path class="cls-4" d="M143.29,149.93l0-.08h0Z"/><path class="cls-12" d="M140.12,150.79l-.46-.23h0l-.39-.26a1.5,1.5,0,0,0-.47-.21c-.19,0-.68.14-.6-.07L135.42,149l-.26.63L135,150l-.54.74.33.07.38.08-.66.4h0l1.19.14c-2.37,1.36-2.55.51-3.22.15l-.24-.08-.93.14-.53,1.5c0,.28-.2.66-.07.86a1.18,1.18,0,0,0,.42.35c.17.1.37.19.53.29a12.19,12.19,0,0,0,2-.35c.94-.3,2.38-.57,2.15-1.49,0-.17.62-.66,1-1l1.76.72.81-.22.08-.23.67-.22.37-.18.16-.27-.08,0-1.09,0Z"/><path class="cls-11" d="M118,161.65l.05-.24.06-.27-.83.42-1.67-.93-1.13.32-1.33,3,.28.54h0l.08,0h0l-.08,0h0l.05,0-.05,0h0l-.51,1-.55-.22-.43-.14-.35.52.16.34-.38.85-.16.35h0l2.34-.93,0,.35-.8.31-1,.36.13.94.74-.34-.56-.06a15.81,15.81,0,0,1,2-1.16c2-.74,2.25-1.44,2.55-2.28a9.42,9.42,0,0,1,1.31-1.76l0,0Z"/><path class="cls-11" d="M246,99.5c-.59,1.16-1.82,2-3.61,2.76l.41,0,1.62.89,1.06-.54-.42,1.64,4.15-2.67a3.31,3.31,0,0,1-.81.11c-.26-.25-.72-.45-.63-.84s.84-.86,1.3-1.3c-.36.07-.75.17-1.08.2-.16,0-.31-.05-.31-.15a8.53,8.53,0,0,1,.14-1l1.26-.23,1-1.13L248.57,97l-.19.11-.34.19A14.27,14.27,0,0,0,246,99.5Z"/><path class="cls-11" d="M223,116.36l.88-.52-.28-.12-2,1.42-1.65.5,1.56.35-2.08,1.92c.07.19.07.49.28.66a1.7,1.7,0,0,0,.94.12,2.33,2.33,0,0,0,.74-.39c1.71-1.34,2.52-2.46,1.69-3.18l1.49-.76Z"/><path class="cls-10" d="M206.35,122.14l-.35-1.2-.93.34-.16.68a3.09,3.09,0,0,1-.83.18c-.39-.15-.61-.42-1-.56a3.77,3.77,0,0,0-.93.27l-.44,1.74c.1-.2,0-.09,0,0l-.56,1h0l0,1.52,2.23-1.09c-.07-.38-.23-.61-.14-.93a10.33,10.33,0,0,1,.69-1.44l1.13.07a2.67,2.67,0,0,0,.42-.06Z"/><path class="cls-10" d="M294.65,75.12l.91-.42,2.36,1.1,1.12-.6h0l.58-.51.41-.36c-.4,0-.82,0-1.19-.07s-.66-.14-1-.21l.48-.57L296,74.4h0l.45-1.39a3,3,0,0,1-1.75-.18,10.56,10.56,0,0,0-1.58-.13l-1,1.06,3.52.46ZM296,74.4h0l0,0Z"/><path class="cls-10" d="M281.3,81.67c-.4-.15-.81-.3-1.25-.42a1.8,1.8,0,0,0-.48.27c-.19.48-.33.94-.48,1.41l.6-.15-1.8,1.71c0,.11,0,.34.11.31,1.6-.44,3.21-.9,4.83-1.39a5.23,5.23,0,0,0,.88-.52,5,5,0,0,0-.82.14,7.64,7.64,0,0,0-.85.39l.52-1.42-.52-.08-.46-.07h0A1.47,1.47,0,0,0,281.3,81.67Z"/><path class="cls-10" d="M229.36,107.7c-.1.23,0,.32.14.42a4.1,4.1,0,0,1,.31.41l5.54-1.87-1.64.08.24-.18-4.12.4,1.82-1h0l-.52-.35,1.43-.58.39-.55c.23-.32.46-.64.64-.95,0,0-.07,0-.2-.05H233C230.63,105.11,228.89,107.18,229.36,107.7Z"/><path class="cls-10" d="M232.94,104.51c.23-.32.46-.64.64-.95C233.4,103.87,233.17,104.19,232.94,104.51Z"/><path class="cls-5" d="M102.54,165.46c-.44-.16-.77-.39-1.19-.56a2.55,2.55,0,0,0-.66,0,2.76,2.76,0,0,0-.41.52c-.17.48-.27.94-.43,1.49l-.19.08-.13,1.28.36.48.61-1,.9,0,.73-.35.92-.7c.11-.48.21-1,.32-1.43h-.08A3.5,3.5,0,0,1,102.54,165.46Z"/><path class="cls-4" d="M189.77,128.88l.85-.47L191,126l-1.66,1.23-1.54,1.14h0l.35.39.27.44.55,1,.89-.54,1.15-.58h0Z"/><polygon class="cls-4" points="190.62 128.42 190.62 128.42 190.62 128.42 190.62 128.42"/><path class="cls-5" d="M263.68,83.79l-.29.19c-.49-.14-.94-.28-1.42-.39a1.32,1.32,0,0,0-.41.21,1.09,1.09,0,0,0,.92,1.92l1.23-1.3.17-.11h0Z"/><path class="cls-10" d="M141.71,149.28l-.82-.2c-.2.29-.37.58-.61.88a7.44,7.44,0,0,1-.63.6l.46.23-.7.59,1.09,0c.24-.34.44-.86.72-1s.36-.15.55-.22c.55-.19,1.12-.32,1.68-.49h0Z"/><path class="cls-5" d="M97.36,169.24l.06-.07c.38-.5.09-.66-.29-.8s-.87-.27-.89-.71L95,169.89l1.07.31.85-.5A4.16,4.16,0,0,0,97.36,169.24Z"/><path class="cls-11" d="M258.72,92.83l-.21.11-1.24,1.93,3.56-2.18,0-.05-.27-.53Z"/><path class="cls-11" d="M296.52,77.07l.4.06-1,.74,4.35-1.49L298.47,76l-.54-.09Z"/><path class="cls-10" d="M261.86,87.7c.21.37-1.72,2.05,1.07.83l.44-.26.51-1.45h0l-.3,0-.21,0Z"/><path class="cls-10" d="M263.55,86.86l.3,0Z"/><path class="cls-10" d="M263.37,88.27h0S263.4,88.25,263.37,88.27Z"/><path class="cls-10" d="M97.46,169.8l.29.33-1,.48-.25.4-.18.28L98,171a6.84,6.84,0,0,0,1.22-1.23c.15-.31-.32-.45-.51-.67l-.42.25Z"/><path class="cls-10" d="M262.48,91.61l1.72-1.53c-.8.11-1.55.22-2.27.3a1.81,1.81,0,0,1-.38,0l-.35,0,.82,1Z"/><path class="cls-4" d="M181.15,131.24l-.86.39c.18.73.32,1.48.55,2.18.07.21.38.29.58.44l-.08-.15Z"/><path class="cls-10" d="M211.78,116.83l-.53.3.75,1,2-2.64-2,1.3Z"/><path class="cls-4" d="M101.41,167.66l-.79.61,2.09,0a.09.09,0,0,1,0,0h0l1.05-1.65h0l-.77-.11-.92.7Z"/><path class="cls-10" d="M111.76,165.92l-.16-.34-.94,0c-.3.77-.62,1.55-.9,2.31a2.39,2.39,0,0,0-.08.61l1.07-.88C110.23,167.27,110.07,166.81,111.76,165.92Z"/><path class="cls-10" d="M248.17,95.59l2-.2.81-.6-.81-.35-1.22.43Z"/><path class="cls-10" d="M107.53,165.11h0l-1.4,1.66,2-1.25.07.31h0l.74-.47-.51-.6Z"/><path class="cls-10" d="M300.07,72.94l0-.2-.42.31Z"/><path class="cls-10" d="M300,72.57l-.14-.73c-.17.14-.3.26-.32.34S299.77,72.46,300,72.57Z"/><path class="cls-10" d="M238.42,102.62l2.18-1.2.19-.1-2.27.31Z"/><path class="cls-10" d="M240.6,101.43l-2.18,1.2Z"/><path class="cls-4" d="M231.64,106l1.18-.14.57-.26.4-.18.42-.19-1.66-.17-1.43.58Z"/><polygon class="cls-4" points="231.64 105.99 231.64 105.99 231.64 105.99 231.64 105.99"/><path class="cls-10" d="M255.75,91.7l-.62.65-.51-.28-.24.94,1.08-.63-.05.46.58-.44.27-.21Z"/><path class="cls-10" d="M256,92.41l-.58.44Z"/><path class="cls-10" d="M112.15,164.07l-3.46,1.88.3.12h0l1.68-.55Z"/><path class="cls-4" d="M162.22,143.66l-.32-.09-.75-.2c-.12.26-.24.53-.37.79s-.16.3-.25.45l.84-.26h0Z"/><polygon class="cls-4" points="162.22 143.66 162.23 143.65 162.22 143.66 162.22 143.66 162.22 143.66"/><path class="cls-10" d="M237.16,101.85l-.77,1.28,1.82-1.1v0l0-.16,0-.16Z"/><path class="cls-4" d="M111.38,166.76l.38-.85c-1.68.9-1.52,1.36-1,1.73l.47-.53Z"/><path class="cls-10" d="M274.9,83.26c-.51.26-1,.57-1.49.86l1.75-.41.73-.8A7.7,7.7,0,0,0,274.9,83.26Z"/><path class="cls-5" d="M94.1,170.06h0l-.44.32.22.23.5-.67Z"/><path class="cls-10" d="M256.27,92.76l1.9-.49,1.22-1.33Z"/><path class="cls-4" d="M92.88,169.55l.2.21.68-.7Z"/><path class="cls-10" d="M102.72,168.32c-.19.25-.62.7-.53.71a12.16,12.16,0,0,0,1.63,0l.23-.24-1.28-.41A.09.09,0,0,0,102.72,168.32Z"/><path class="cls-10" d="M263.11,88.82l1.52.13.4-.37h-2Z"/><path class="cls-10" d="M188.11,128.75l-1.24,1.88.39-.08,1.12-1.37Z"/><path class="cls-4" d="M297.92,75.8h0a.15.15,0,0,1,0,.08l.54.09,1-.4.6-.68-.33.1-.69.21Z"/><path class="cls-10" d="M282.52,78.65c0,.23.22.38.35.56l.08-1.19C282.79,78.23,282.51,78.5,282.52,78.65Z"/><polygon class="cls-10" points="273.3 83.89 273.3 83.9 273.31 83.89 273.31 83.89 273.3 83.89 273.3 83.89"/><polygon class="cls-10" points="273.3 83.89 273.3 83.89 273.3 83.89 273.3 83.89"/><polygon class="cls-10" points="273.3 83.89 273.3 83.9 273.3 83.89 273.3 83.89"/><path class="cls-10" d="M273.55,83.58l-.64-.44-.3,1,.7-.25Z"/><path class="cls-4" d="M182.86,129.65l1.47-.87-1.5.23Z"/><path class="cls-12" d="M93.7,169.77l-.32.31.29.3.44-.32Z"/><path class="cls-10" d="M253.88,91.32l-.76,1.11.54-.13.78-1.25Z"/><path class="cls-4" d="M107,164.45l0-.23h0l-.59.26-.56,1.1.35-.1.83-1h0Z"/><path class="cls-5" d="M273.52,81.09l-1.39,1,.08,0,1.61-.88Z"/><path class="cls-10" d="M198.14,124l0,0h0l-.06-.07-.43.12-.49.34,1.93-.4-1,0Z"/><path class="cls-4" d="M171.4,138.13l1,.07.37-.34Z"/><path class="cls-10" d="M259.2,92.38l-1.23.17h0l.53.39.21-.11Z"/><path class="cls-4" d="M98.33,169.34l.42-.25.55-.81-.79.21Z"/><path class="cls-11" d="M249.34,94.32l-.35.18-.15.16.12.22,1.22-.43.14-.17L250,94Z"/><path class="cls-10" d="M199.91,125.32l.61-.41.22-.14-.8-.16Z"/><path class="cls-10" d="M97,169.77l-.1-.08-.85.5-.24.4.86-.33.42-.41Z"/><path class="cls-10" d="M250.33,94.28l.38-.19.53-.37-.84-.24L250,94Z"/><path class="cls-10" d="M299.46,75.56l1-.58,0-.09h-.37Z"/><path class="cls-10" d="M271.36,84.5l.43-.09.34-.83-.31.08Z"/><path class="cls-5" d="M97.46,169.8h0l-.35.05-.42.41,0,.36,1-.48Z"/><path class="cls-10" d="M190.58,129.92l-.31-.1-.45-.15-.89.54Z"/><path class="cls-10" d="M107.42,164.34l-.47.11h0l.3.51Z"/><path class="cls-12" d="M271.11,83l-.39.41H271l.35-.43Z"/><path class="cls-10" d="M282.18,81.56l.58-.31-.28,0Z"/><path class="cls-4" d="M250.88,91.69l.48-.38-.6.13h0Z"/><path class="cls-11" d="M140.43,151.64l.53-.17-.37-.1Z"/><path class="cls-4" d="M236.33,101.67s.13-.12.12-.15-.11,0-.22-.06c-.09.13-.16.21-.16.26S236.24,101.71,236.33,101.67Z"/><path class="cls-11" d="M251.16,94l.08-.27-.53.37Z"/><path class="cls-10" d="M177.79,139.94a1.78,1.78,0,0,0-.21.21.59.59,0,0,0,.2,0,2.43,2.43,0,0,0,.28-.23A1.36,1.36,0,0,0,177.79,139.94Z"/><path class="cls-10" d="M282.91,77.85l0,.08.29-.34h0Z"/><circle class="cls-10" cx="282.91" cy="77.85" transform="matrix(0.95, -0.31, 0.31, 0.95, -10.16, 92.42)"/><path class="cls-10" d="M107.94,166H108l.14-.2h0Z"/><path class="cls-10" d="M254.72,91.55l0,.17h0l.23-.2Z"/><path class="cls-4" d="M234.49,105.2h.05l.1-.09h-.06Z"/><path class="cls-11" d="M229.62,112.12l.14,0,0-.05-.13,0Z"/><polygon class="cls-10" points="251.05 94.41 251.09 94.36 251.09 94.36 251.05 94.41"/><polygon class="cls-10" points="251.09 94.36 251.13 94.32 251.09 94.36 251.09 94.36"/><polygon class="cls-10" points="108.96 166.11 109 166.07 109 166.07 108.96 166.11"/><path class="cls-10" d="M108.63,165.87s0,0,0,0l.07,0Z"/><polygon class="cls-4" points="103.82 166.72 103.84 166.7 103.82 166.72 103.82 166.72 103.82 166.72"/><path class="cls-5" d="M298.36,69c0-.14.23-.39.36-.58-.43.22-.88.42-1.3.65-.8.42-1.62.84-2.37,1.29a13.79,13.79,0,0,0-1.3,1l5-2C298.57,69.28,298.37,69.2,298.36,69Z"/><path class="cls-12" d="M293.64,71.91a.61.61,0,0,0,.24-.07c.08,0,.16-.1.43-.28l-.67.24S293.6,71.91,293.64,71.91Z"/><path class="cls-8" d="M296.56,67.43l.11.39.14.09,2-1.62,0-.08-.37-.08Z"/><path class="cls-5" d="M148.57,140.46c-.5,0-1-.09-1.43-.14l-.7,1.52a7.82,7.82,0,0,0-1.69.81c-.38.35-.19.72-.29,1.31l-.59.8c-.64-.21-1.19-.41-1.78-.57a2.72,2.72,0,0,0-.66,0c-.13.17-.36.37-.39.5-.19.89-.33,1.76-.54,2.65,0,.14-.32.36-.49.55-.24,0-.58,0-.7-.11-.54-.46-1-1-1.76-1.69l-1.6,2.47-1.24-.37-.81.46L135,150l.16-.38.26-.63,2.77,1.05c-.09.2.4,0,.6.07a1.5,1.5,0,0,1,.47.21l.39.26h0a7.44,7.44,0,0,0,.63-.6c.24-.3.41-.59.61-.88l.82.2a4.82,4.82,0,0,1,.76-1.2c.61-.6,1.44-1.2,2.17-1.8l1.67-.56.24-1.39a3,3,0,0,1,.67-.23c.74.21,1.44.46,2.2.72l.19-.08.38-.17.34-.17-.62-1.22.75-.4.37.16,1.24-.27.16-.21.14,0-.21.21h0l1.14.46.2-.11.15-.8.8-.11-.94,0,.75-.45c-.11,0-.34,0-.31-.14a8.06,8.06,0,0,1,.56-1.26,2.26,2.26,0,0,1,.66-.3c.66.28,1.27.6,2.18,1l3.62-2.3-.53-.21.18-.1.82-1.74a3.35,3.35,0,0,1,.77-.15c.5.09.83.47,1.4.3a29.93,29.93,0,0,0,3.14-1.3c.2-.68.29-1,.44-1.43,0-.1.26-.26.4-.39.35,0,.85,0,1,.09.77.59,2,.36,4-.79l-1.17-.19.12-.09,1.13-2.46,2.6.81-.11.51a13.2,13.2,0,0,1,1.48-.2c.55,0,1,.09,1.76.16l.06-1.52.1-.05.28-.14.26-.13-1.78.32a6.61,6.61,0,0,1-1.21-.62c-.07-.06.37-.43.57-.65l.15-.17-1,.08.22-.72-.52-.06a2.69,2.69,0,0,0-.56,0,10.38,10.38,0,0,0-1.3.3l-.59,1.43c-.49-.11-.91-.19-1.29-.3-.59-.17-1.14-.36-1.71-.55-.34.41-.71.81-1,1.21-.12.15-.09.29-.16.55-2.26-1-1.65.83-2.51,1.27-2.06-1-1.71.88-2.7,1.62-.42-.13-.81-.28-1.26-.38a5.79,5.79,0,0,0-.92,0,9.46,9.46,0,0,1-.62.74c-.28.28-.64.57-1,.86a4.34,4.34,0,0,0-.52-.14c-.25,0-.53,0-.79-.07a2.92,2.92,0,0,1-.57.69c-.58.42-1.25.82-1.89,1.22-.38.23-.78.45-1.17.68-1.2.56-2.62,2-3.48,1.22l-.87.54-1.14,1.68A7.06,7.06,0,0,1,148.57,140.46Z"/><polygon class="cls-5" points="154.27 141.65 154.26 141.66 154.26 141.66 154.27 141.65"/><polygon class="cls-5" points="153.51 142.99 153.51 142.99 153.51 142.99 153.51 142.99"/><polygon class="cls-5" points="172.59 132.97 172.59 132.98 172.59 132.98 172.59 132.97"/><path class="cls-5" d="M171.54,132.7Z"/><path class="cls-8" d="M189.44,121.47c-.31.28-.74.56-1.12.84l1.82-.48,1.14-1.52,2,.77-.22.11,1.56.12.75-.36.2-.11.29-.8h0l.21-.18.44-2.12,3.06.91a9.67,9.67,0,0,1,.09-1.73,7.33,7.33,0,0,1,.6-1.25l1.85-.47,1.45-2.9c.92.82,1.86,0,2.51-.65a4.52,4.52,0,0,0-.11-.71c-.14-.38-.31-.75-.46-1.12h0c-2.35,1.15-3.41.87-4.27.36a2.71,2.71,0,0,0-.83-.09,3.91,3.91,0,0,1-.48.82,4.94,4.94,0,0,1-1.06,1c-1.08.21-2.08.3-3.09.43-1.53,2.9-1.83.67-2.7.75l-.24.49-1.68.38-.29.4c-.17,0-.34,0-.5,0l-1.05-.09c-.13.35-.24.7-.39,1.06-.36.87-.73,1.75-1.2,2.85l-1.46-.43-2.06,3.87-1.42-.64-.43,1.23c2.34-.36,4.69-.72,7-1.06C189.54,121.1,189.56,121.36,189.44,121.47Z"/><path class="cls-8" d="M130.8,149.79c.34.1,1,.09,1,.35s1,.17,1.25.38,0,.39-.82,1l.24.08,2-.84L135,150l-1.09-1.27.81-.46,1.24.37,1.6-2.47c.75.73,1.22,1.23,1.76,1.69.12.1.46.08.7.11.17-.19.46-.41.49-.55.2-.89.34-1.76.54-2.65,0-.13.25-.33.39-.5a2.72,2.72,0,0,1,.66,0c.59.16,1.14.36,1.78.57l.59-.8c.1-.59-.09-1,.29-1.31a7.82,7.82,0,0,1,1.69-.81l.7-1.52c.47,0,.93.12,1.43.14a7.06,7.06,0,0,0,.91-.09l1.14-1.68c-2.21,1.07-3.83,1.31-4.74.72a1.58,1.58,0,0,1-.35-.31l-.77.39a3.54,3.54,0,0,1,0,1.13c0,.15-.56.46-.86.7l-1.33-.59-1.49-.1-.37.67-.06.32-.15.18.42.24c-1.93,1.46-1.73.37-2.35.26l-.19.06a2.17,2.17,0,0,0-.45.16,6.71,6.71,0,0,0-.49.82c-.11.2-.2.39-.3.59a6,6,0,0,1-1,.2,3.18,3.18,0,0,1-.82-.18l-.08.4L133,145.49l-.2,1-1.39-.11-.6,2.14-1.49-.14a6.22,6.22,0,0,1-.27,1,1.36,1.36,0,0,1-.22.32l-.29.33h0l1.34.57Z"/><path class="cls-9" d="M167.39,123.57a14.56,14.56,0,0,0,3.42-1.26,25.11,25.11,0,0,1,2.77-1.39,17.46,17.46,0,0,0,7.55-3.91c-.86.34-1.48.65-2,.81-1,.3-2.07.53-3.08.76a16.78,16.78,0,0,0-2.26.47c-1.78.65-4.06,2-5.26,2-2,.14-2.72.56-2.69,1.6C165.83,123.21,166.52,123.62,167.39,123.57Z"/><path class="cls-8" d="M173.59,116q3.52-3.22,7-6.44c.13-.12.12-.25.18-.37l-.33,0c-.38.42-.74.84-1.15,1.26a12,12,0,0,1-1.3,1.24c-1.5,1.15-3.09,2.28-4.56,3.43a1.47,1.47,0,0,0-.49.92C172.87,116.1,173.55,116,173.59,116Z"/><path class="cls-8" d="M175.78,128.64l1-.08c.46-.26,1-.5,1.37-.78a2.9,2.9,0,0,0,.69-.69c0-.05-.32-.11-.49,0-1.1.46-1.48.52-1.5.39a.26.26,0,0,1,.07-.16l.17-.19c.14-.14.32-.31.49-.48l.26-.25-1-.76-.48.26-.36,2.05Z"/><path class="cls-9" d="M184.52,115.51c1.37-.4,2.7-.72,4.57-1.22-1.75.25-3,.52-4.06.57a6.12,6.12,0,0,0-3.83,1.74C182.18,116.27,183.37,115.85,184.52,115.51Z"/><path class="cls-8" d="M155,136.94l-3.48,1.22C152.35,139,153.77,137.51,155,136.94Z"/><path class="cls-8" d="M180.28,123.12a6.68,6.68,0,0,0-.5.92s.09,0,.23,0l.41-.06.85-.83Z"/><path class="cls-8" d="M207.14,108.63l-1.5.41.28.57Z"/><path class="cls-8" d="M206.11,108.41l-.28,0-.13.24Z"/><path class="cls-8" d="M205.31,108.91s0,0,0,0l.07,0Z"/><path class="cls-8" d="M246.22,91.46a7.87,7.87,0,0,0,1.21-.49,2.53,2.53,0,0,0,.31-.44c.08-.15.15-.29.24-.44a12.84,12.84,0,0,1-2,.38,4.14,4.14,0,0,1-1.34-.35,8.42,8.42,0,0,0-.6,1.23c0,.15.27.19.61.38l-1.69.19-.13.8,2,0Z"/><path class="cls-8" d="M247.43,91a2.53,2.53,0,0,0,.31-.44A2.53,2.53,0,0,1,247.43,91Z"/><path class="cls-8" d="M241,93.93l1.27.54.47-1.31.14-.38-4.69,2.12,1,.55Z"/><path class="cls-8" d="M223.38,100.52l2-.42.14-.22-2,.43Z"/><path class="cls-12" d="M205.54,114.47l-.91.76.62,0h0Z"/><path class="cls-12" d="M202.91,117.25h0l-.76.76.62,0Z"/><path class="cls-12" d="M205.26,115.28l-.49.45,1.12-.37Z"/><path class="cls-12" d="M207.08,113.78l-.29-.13h0l-.21.28Z"/><path class="cls-6" d="M215.52,100.67l-.5.46.49-.15Z"/><path class="cls-12" d="M208.42,114l.19-.3-.62.34h0Z"/><path class="cls-12" d="M209,114l-.06,0-.41.26,0,.05Z"/><path class="cls-12" d="M205.17,114.37l.29,0-.08-.15Z"/><path class="cls-2" d="M207.72,99l-5.55,2.83,2.48-.44,3.21-2.31Z"/><path class="cls-9" d="M119.43,150.8l-4.86,1.53C115.83,152.25,117.47,152.59,119.43,150.8Z"/><path class="cls-9" d="M113.35,152.72l1.22-.38A2.17,2.17,0,0,0,113.35,152.72Z"/><path class="cls-8" d="M109.24,159.75l-.31-.37-.27,0h0l-.75.22h0Z"/><path class="cls-8" d="M109.56,159.08l-.21-.77-.45,1,0,.08Z"/><path class="cls-5" d="M108.94,159.38h0l0-.08-.23.12Z"/><path class="cls-5" d="M254.84,90l.53,0,1.85-1.7,2.88-.69-.44-.86-.79-.23-2.07-.86c-.31.5-.6,1-.94,1.5-.46.68-1,1.37-1.44,2l.71-.13Z"/><path class="cls-5" d="M281.29,76.66l1.35-3.19c-.49-.13-1-.26-1.48-.38a3,3,0,0,0-.55,0c-.12.15-.33.32-.36.44-.22.72-.4,1.42-.58,2.08l-.44.1-.47.11Z"/><path class="cls-5" d="M277.13,77.76l.95-1.44-.95.27c-.08-.59-.66-.83-1.28-1a1.89,1.89,0,0,0-.57.2c-.25.46-.46.91-.74,1.5l.2-.12-.19.48-.26.64-.24.59Z"/><path class="cls-5" d="M273.91,79l-2-.48-.38,1.13a3.82,3.82,0,0,0-.74.43c-.1.2-.1.44.09.47h.27c.29,0,.66-.09,1-.12l1.53-.1Z"/><path class="cls-5" d="M265.06,81.31l-.77,1.31,1.78-1.09Z"/><path class="cls-6" d="M272.55,76.18l.64-.26.07-1-.61.23Z"/><polygon class="cls-5" points="232.03 98.31 231.97 98.31 232.03 98.31 232.03 98.31"/><path class="cls-6" d="M144.73,140.62a3.54,3.54,0,0,0,0-1.13l-2.23,1.24,1.33.59C144.17,141.08,144.69,140.77,144.73,140.62Z"/><path class="cls-6" d="M140.88,142l-.42-.24-1.92.5C139.15,142.41,139,143.5,140.88,142Z"/><path class="cls-9" d="M140.39,139.84l-1,.71,1.93-.85.34-.34Z"/><path class="cls-2" d="M136.3,140.24l-2,.48.42.31Z"/><path class="cls-9" d="M134.66,141.6l-.1.12.21-.1Z"/><path class="cls-5" d="M193.11,121.19l.22-.11-2-.77-1.14,1.52c.46,0,1.33-.23,1.31-.08a10,10,0,0,1-.65,2L190,124l1.71,1.29.45-1-.28.11.7-2.56,2.77.55L196,122l-.56-1.1-.75.36Z"/><path class="cls-5" d="M196.19,120.69l-.27-.65h0l-.29.8Z"/><path class="cls-10" d="M206.89,120.55l-.55.13-.17.18.63-.15Z"/><path class="cls-3" d="M198.13,123.92l-.1-.17-.33.28Z"/><path class="cls-5" d="M205.82,116.14l.08-.1-.23.07Z"/><path class="cls-5" d="M205.66,116.11h0Z"/><path class="cls-5" d="M177.76,129.28a2.84,2.84,0,0,0,.8-.56c1-1.69-1.35.25-1.84.14l.4.78Z"/><path class="cls-5" d="M191.13,122.1c-.05-.13-.49-.06-1.1-.11-.36.54-.74,1-.64,1a8.3,8.3,0,0,0,1.34-.2C190.87,122.55,191.18,122.24,191.13,122.1Z"/><path class="cls-12" d="M185.1,127.09a12.48,12.48,0,0,0-1.5.9h.89l.68.06a6,6,0,0,0,.86-1C186.07,127,185.42,127,185.1,127.09Z"/><path class="cls-4" d="M188.16,125.43l-.71-.33-1.22.68a2,2,0,0,0,.84.29A7.15,7.15,0,0,0,188.16,125.43Z"/><path class="cls-5" d="M181.61,126.12c-.79.17-1.29.27-1.8.4,0,0-.32.35-.27.36.39.06.84.07,1.27.1Z"/><path class="cls-12" d="M176.09,129.38a6.61,6.61,0,0,0,1.21.62l-.17-.35-.4-.78-.06-.14C176.46,129,176,129.32,176.09,129.38Z"/><path class="cls-12" d="M182.48,127.76a2.53,2.53,0,0,0-.29.86l.57-.16.82-1.14A7.76,7.76,0,0,0,182.48,127.76Z"/><path class="cls-8" d="M183.67,125.6l.6-.16a3.09,3.09,0,0,0,.33-.81c0-.08-.41,0-.63,0l-.46.83.41,0Z"/><path class="cls-5" d="M182.67,126.19a5.82,5.82,0,0,0,1-.59l.24-.16-.41,0-1.18.09c-.17.22-.51.54-.46.64S182.37,126.3,182.67,126.19Z"/><path class="cls-5" d="M189.62,125h0l0-.58-1.6,1.44.21.12,1.26-.8h0Z"/><polygon class="cls-5" points="189.47 125.22 189.47 125.22 189.47 125.22 189.47 125.22"/><path class="cls-4" d="M187.13,127.38l.56-.17.54-.93-1,.29Z"/><path class="cls-5" d="M188.16,125.43l1.09-1.08-1.8.75Z"/><path class="cls-5" d="M187.89,123.5a4.31,4.31,0,0,0-.84.62l1.29-.25.42-.39A2.3,2.3,0,0,0,187.89,123.5Z"/><path class="cls-5" d="M188.14,123l-1.34.24.25.52Z"/><path class="cls-5" d="M189.47,125.22l.28.54.7-.4-.83-.32Z"/><polygon class="cls-5" points="189.62 125.05 189.62 125.05 189.62 125.05 189.62 125.05"/><polygon class="cls-5" points="189.47 125.22 189.47 125.22 189.47 125.22 189.47 125.22 189.47 125.22 189.47 125.22"/><path class="cls-4" d="M181.56,131.29c0,.11-.11.31,0,.31a3,3,0,0,0,.86-.16c.11,0,.42-.32.39-.34a2.1,2.1,0,0,0-.53-.21Z"/><path class="cls-12" d="M188.42,126.59l.13.19,1.38-.7-.08-.18Z"/><path class="cls-8" d="M187.05,123.79l-.25-.52-.72.32c.07.17.09.36.24.48A4,4,0,0,0,187.05,123.79Z"/><path class="cls-12" d="M184.79,126.89c.27-.2.49-.41.86-.73a3.94,3.94,0,0,0-.65.12,5,5,0,0,0-.58.62A1.14,1.14,0,0,0,184.79,126.89Z"/><path class="cls-4" d="M181.74,128.27l-1.1.56.1.2,1.11-.61Z"/><polygon class="cls-4" points="190.69 128.41 190.62 128.42 190.62 128.42 190.69 128.41"/><path class="cls-3" d="M107,164.45l.47-.11.11-.52-.46.23-.15.17h0Z"/><path class="cls-4" d="M107.26,163.78l-.19.27.46-.23Z"/><path class="cls-3" d="M106.45,163.85s0,0,0,0Z"/><path class="cls-3" d="M106.45,163.87v0Z"/><path class="cls-4" d="M118,161.65l0,.84.91-.94h0Z"/><path class="cls-5" d="M124.51,157.49l-1.37.52.31.21,1-.48Z"/><path class="cls-5" d="M280.5,78.69l1.12-.13.36-.38-1,0Z"/><path class="cls-3" d="M285.23,75.42l.21-.1h0Z"/><circle class="cls-3" cx="285.45" cy="75.33" transform="translate(113.3 315.16) rotate(-69.11)"/><path class="cls-3" d="M285.44,75.33h0C285.29,75.26,285.37,75.29,285.44,75.33Z"/><path class="cls-8" d="M268.95,82.15l0-.13h0l-.09.14Z"/><polygon class="cls-10" points="282.9 77.86 282.91 77.85 282.85 77.86 282.9 77.86"/><path class="cls-3" d="M267.35,84h0l-.07,0Z"/><path class="cls-10" d="M152.16,142.65h-.09l-1.24.27-.5,1.47-.34.17.92.41.74-1.28,1-.08,1.09-.09-.45-.43h0Z"/><path class="cls-10" d="M154,143.91l.69-.38.06,0,.36-.19-.09-.37-.8.44-.41.23-.8.84Z"/><path class="cls-10" d="M155.19,143.46h0l.22-.21-.3.06.07.15Z"/><path class="cls-5" d="M153.53,143h0C153.58,143,153.62,143,153.53,143Z"/><path class="cls-5" d="M153.55,143h0l0,0h0Z"/><path class="cls-5" d="M153.53,143h0Z"/><path class="cls-5" d="M172.6,133h0Z"/><polygon class="cls-5" points="154.32 141.65 154.27 141.65 154.26 141.66 154.32 141.65"/><path class="cls-5" d="M249,94.88l-.12-.22-.32,0h0l-1.66,1.58.23-.11,1.07-.5Z"/><path class="cls-3" d="M250.21,92.63h0Z"/><path class="cls-3" d="M250.08,92.66l.13,0h0Z"/><path class="cls-10" d="M249,94.5l-.46.13.32,0Z"/><polygon class="cls-5" points="245.56 93.87 245.63 93.86 245.57 93.86 245.56 93.87"/><polygon class="cls-5" points="241.54 95.95 241.58 95.9 241.57 95.9 241.54 95.95"/><path class="cls-10" d="M147,149.34l3-.52,2.83-1.55c-1.34.36-2.11.59-2.84.75a20.55,20.55,0,0,1-2.11.37c-.08,0,.18-.39.3-.64l-.12,0-.23.06Z"/><path class="cls-10" d="M148.82,146.44a2.61,2.61,0,0,1-.79-.07,3.44,3.44,0,0,0-.56.77c-.05.22.14.36.22.53l.7-.65a3.32,3.32,0,0,1,.51,0,2.35,2.35,0,0,0,2-.46,20.73,20.73,0,0,1,2.11-1l-1.1.24-.2,0C150.72,146.09,149.75,146.29,148.82,146.44Z"/><path class="cls-10" d="M149.45,146l1.21-.1.42-.6-1.46.44Z"/><path class="cls-10" d="M151.27,145.17h.24a1,1,0,0,0,.1-.14l-.36.05Z"/><path class="cls-4" d="M154.77,143.57l.41-.11h0l-.07-.15h0l-.36.19Z"/><path class="cls-3" d="M159.3,144h0l.2-.12Z"/><path class="cls-3" d="M159.3,144Z"/><polygon class="cls-3" points="159.3 144.01 159.3 144.01 159.3 144.01 159.3 144.01"/><polygon class="cls-4" points="162.23 143.65 162.22 143.66 162.28 143.65 162.23 143.65"/><polygon class="cls-4" points="158.45 142.36 158.51 142.35 158.46 142.36 158.45 142.36"/><polygon class="cls-4" points="158.72 142.89 158.78 142.88 158.73 142.88 158.72 142.89"/><path class="cls-12" d="M144.65,146.28l1.41.28-.08-.34.21-.3.14-.2Z"/><path class="cls-5" d="M135.68,151.41l-1.19-.14h-.06l.07,0,.66-.4-.38-.08-.33-.07-2,.84C133.13,151.91,133.31,152.77,135.68,151.41Z"/><path class="cls-12" d="M113.45,164.46h0Z"/><path class="cls-12" d="M113.45,164.46h0l.08,0Z"/><circle class="cls-12" cx="113.45" cy="164.46" r="0.01" transform="translate(-49.11 48.31) rotate(-19.85)"/><polygon class="cls-4" points="295.99 74.4 295.95 74.44 296 74.4 295.99 74.4"/><polygon class="cls-4" points="198.14 124.04 198.19 123.99 198.19 123.99 198.18 123.99 198.14 124.04"/><path class="cls-4" d="M150.84,142.93l-.37-.16-.75.4.62,1.22Z"/><path class="cls-10" d="M152.37,142.43l-.14,0-.16.21h.09Z"/><path class="cls-12" d="M134.49,151.27h0l-.07,0Z"/></svg>