<svg id="Layer_1" data-name="Layer 1" xmlns="http://www.w3.org/2000/svg" viewBox="0 0 134 165"><defs><style>.cls-1{fill:#c68f58;}.cls-2{fill:#cb6457;}.cls-3{fill:#303030;}</style></defs><title>notebook</title><path class="cls-1" d="M109.55,11.36H21.11a2.17,2.17,0,0,0-2.17,2.17V148.18a2.17,2.17,0,0,0,2.17,2.17h88.44a6.69,6.69,0,0,0,6.69-6.69V18A6.69,6.69,0,0,0,109.55,11.36Z"/><rect class="cls-2" x="17.95" y="11.5" width="15.11" height="139"/><path class="cls-3" d="M63.26,61.84l-.64-1.78H60.17l-.63,1.78H58.43l2.4-6.45H62l2.4,6.45Zm-.92-2.69-.6-1.75q-.07-.18-.18-.55t-.16-.55a9.86,9.86,0,0,1-.35,1.18l-.58,1.67Z"/><path class="cls-3" d="M72.92,61.84H71.63l-3.16-5.12h0l0,.29q.06.82.06,1.49v3.34h-1V55.42h1.28L72,60.51h0c0-.07,0-.31,0-.74s0-.75,0-1V55.42h1Z"/><path class="cls-3" d="M79.58,58.36h2.36v3.22a6.75,6.75,0,0,1-1.11.27,7.89,7.89,0,0,1-1.15.08,2.9,2.9,0,0,1-2.25-.86,3.48,3.48,0,0,1-.79-2.44,3.25,3.25,0,0,1,.89-2.43A3.36,3.36,0,0,1,80,55.32a4.8,4.8,0,0,1,1.91.39l-.37.88A3.71,3.71,0,0,0,80,56.22a2.11,2.11,0,0,0-1.62.65,2.5,2.5,0,0,0-.6,1.77,2.63,2.63,0,0,0,.54,1.79,2,2,0,0,0,1.55.61,5,5,0,0,0,1.09-.13V59.26H79.58Z"/></svg>